mtllib case.mtl
o cube
usemtl plastic-0
v -0.1850000 0.0273548 0.1286358
v -0.1850000 0.0136774 -0.1286358
v -0.1850000 0.0136774 0.1286358
v -0.0782081 0.0234508 0.1315099
v 0.0782083 0.0234508 0.1315099
v 0.1821259 0.0273548 0.1315099
v 0.1850000 0.0273548 -0.1286358
v 0.1850000 0.0136774 0.1286358
v 0.1850000 0.0136774 -0.1286358
v -0.1821259 0.0273548 0.1315099
v -0.1835629 0.0136774 0.1311249
v -0.1821259 0.0136774 0.1315099
v -0.1835629 0.0273548 0.1311249
v -0.1846149 0.0136774 0.1300728
v -0.1835629 0.0136774 0.1311249
v -0.1846149 0.0273548 0.1300728
v -0.1850000 0.0136774 0.1286358
v -0.1846149 0.0136774 0.1300728
v 0.1823789 0.0273548 -0.1268133
v 0.1823710 0.0263282 -0.1270338
v 0.1823789 0.0263282 -0.1256337
v -0.1823751 0.0273548 -0.1296467
v -0.1821259 0.0263282 -0.1302752
v -0.1821259 0.0273548 -0.1315099
v 0.1821259 0.0273548 0.1315099
v 0.1809622 0.0273548 0.1292671
v 0.1795455 0.0273548 0.1296467
v 0.1850000 0.0273548 0.1286358
v 0.1819993 0.0273548 0.1282300
v 0.1846149 0.0273548 0.1300728
v -0.1821259 0.0273548 0.1315099
v -0.1809622 0.0273548 0.1292671
v -0.1835629 0.0273548 0.1311249
v -0.1846149 0.0273548 -0.1300728
v -0.1823770 0.0273548 -0.1292671
v -0.1835629 0.0273548 -0.1311249
v -0.1823789 0.0273548 -0.1268133
v -0.1823838 0.0263282 -0.1270337
v -0.1823838 0.0273548 -0.1282300
v 0.1846149 0.0273548 -0.1300728
v 0.1823847 0.0273548 -0.1292671
v 0.1823710 0.0273548 -0.1282300
v -0.1850000 0.0273548 0.1286358
v -0.1819993 0.0273548 0.1282300
v -0.1823789 0.0273548 0.1268133
v 0.1835629 0.0273548 0.1311249
v -0.1795455 0.0273548 0.1296467
v -0.1823751 0.0273548 -0.1296467
v -0.1821259 0.0273548 -0.1315099
v -0.1846149 0.0273548 0.1300728
v -0.1850000 0.0273548 -0.1286358
v -0.1823838 0.0273548 -0.1282300
v 0.1850000 0.0273548 -0.1286358
v 0.1823789 0.0273548 -0.1268133
v 0.1835629 0.0273548 -0.1311249
v 0.1821341 0.0273548 -0.1296467
v -0.1823789 0.0273548 -0.1268133
v 0.1823789 0.0273548 0.1268133
v -0.1846149 0.0136774 -0.1300728
v -0.1850000 0.0273548 -0.1286358
v -0.1846149 0.0273548 -0.1300728
v -0.1835629 0.0136774 -0.1311249
v -0.1846149 0.0273548 -0.1300728
v -0.1835629 0.0273548 -0.1311249
v -0.1821259 0.0136774 -0.1315099
v -0.1835629 0.0273548 -0.1311249
v -0.1821259 0.0273548 -0.1315099
v 0.1846149 0.0136774 0.1300728
v 0.1850000 0.0273548 0.1286358
v 0.1846149 0.0273548 0.1300728
v 0.1835629 0.0136774 0.1311249
v 0.1846149 0.0273548 0.1300728
v 0.1835629 0.0273548 0.1311249
v 0.1821259 0.0136774 0.1315099
v 0.1835629 0.0273548 0.1311249
v 0.1821259 0.0273548 0.1315099
v 0.1835629 0.0136774 -0.1311249
v 0.1821259 0.0273548 -0.1315099
v 0.1835629 0.0273548 -0.1311249
v 0.1846149 0.0136774 -0.1300728
v 0.1835629 0.0273548 -0.1311249
v 0.1846149 0.0273548 -0.1300728
v 0.1850000 0.0136774 -0.1286358
v 0.1846149 0.0273548 -0.1300728
v 0.1850000 0.0273548 -0.1286358
v 0.1823710 0.0273548 -0.1282300
v 0.1823847 0.0263282 -0.1280587
v 0.1823710 0.0263282 -0.1270338
v 0.1823847 0.0273548 -0.1292671
v 0.1821341 0.0263282 -0.1284338
v 0.1823847 0.0263282 -0.1280587
v -0.1823789 0.0273548 0.1268133
v -0.1819993 0.0263283 0.1264164
v -0.1823789 0.0263283 0.1250163
v -0.1821259 0.0136774 -0.1315099
v -0.1821259 0.0263282 -0.1302752
v -0.1821259 0.0136774 -0.1302752
v -0.1823789 0.0273548 -0.1268133
v -0.1823789 0.0263283 0.1250163
v -0.1823789 0.0263282 -0.1256337
v 0.1819993 0.0273548 0.1282300
v 0.1809622 0.0263283 0.1274413
v 0.1809622 0.0273548 0.1292671
v 0.1821259 0.0136774 -0.1315099
v 0.1821259 0.0263282 -0.1302752
v 0.1821259 0.0273548 -0.1315099
v 0.1809622 0.0273548 0.1292671
v 0.1795455 0.0263283 0.1278164
v 0.1795455 0.0273548 0.1296467
v 0.1823789 0.0273548 -0.1268133
v 0.1823789 0.0263283 0.1250163
v 0.1823789 0.0273548 0.1268133
v 0.1795455 0.0273548 0.1296467
v -0.1795455 0.0263283 0.1278164
v -0.1795455 0.0273548 0.1296467
v 0.1823789 0.0273548 0.1268133
v 0.1819993 0.0263283 0.1264164
v 0.1819993 0.0273548 0.1282300
v 0.1821341 0.0273548 -0.1296467
v 0.1821259 0.0263282 -0.1302752
v 0.1821341 0.0263282 -0.1284338
v -0.1823770 0.0273548 -0.1292671
v -0.1823751 0.0263282 -0.1284338
v -0.1823751 0.0273548 -0.1296467
v -0.1809622 0.0273548 0.1292671
v -0.1795455 0.0263283 0.1278164
v -0.1809622 0.0263283 0.1274413
v -0.1819993 0.0273548 0.1282300
v -0.1809622 0.0263283 0.1274413
v -0.1819993 0.0263283 0.1264164
v -0.1823838 0.0273548 -0.1282300
v -0.1823770 0.0263282 -0.1280587
v -0.1823770 0.0273548 -0.1292671
v -0.0782081 0.0234508 0.1315099
v 0.0782083 0.0234508 0.1305796
v 0.0782083 0.0234508 0.1315099
v -0.0849981 0.0206384 0.1315099
v -0.0818836 0.0227195 0.1305796
v -0.0818836 0.0227195 0.1315099
v 0.0878090 0.0136774 0.1315099
v 0.0878108 0.0136774 0.1305796
v 0.0878108 0.0136774 0.1315099
v -0.0782161 0.0234490 0.1315099
v -0.0782081 0.0234508 0.1305796
v -0.0782081 0.0234508 0.1315099
v 0.0782083 0.0234508 0.1315099
v 0.0782163 0.0234490 0.1305796
v 0.0782163 0.0234490 0.1315099
v 0.0782163 0.0234490 0.1315099
v 0.0818838 0.0227195 0.1305796
v 0.0818838 0.0227195 0.1315099
v 0.0818838 0.0227195 0.1315099
v 0.0849983 0.0206384 0.1305796
v 0.0849983 0.0206384 0.1315099
v -0.0878106 0.0136774 0.1315099
v -0.0878087 0.0136774 0.1305796
v -0.0878087 0.0136774 0.1315099
v 0.0849983 0.0206384 0.1315099
v 0.0870794 0.0175239 0.1305796
v 0.0870794 0.0175239 0.1315099
v 0.0870794 0.0175239 0.1315099
v 0.0878090 0.0136774 0.1305796
v 0.0878090 0.0136774 0.1315099
v -0.0878106 0.0136774 0.1315099
v -0.0878106 0.0136774 0.1305796
v -0.0878087 0.0136774 0.1315099
v -0.0870792 0.0175239 0.1305796
v -0.0870792 0.0175239 0.1315099
v -0.0818836 0.0227195 0.1315099
v -0.0782161 0.0234490 0.1305796
v -0.0782161 0.0234490 0.1315099
v -0.0870792 0.0175239 0.1315099
v -0.0849981 0.0206384 0.1305796
v -0.0849981 0.0206384 0.1315099
v 0.0878108 0.0136774 0.1315099
v 0.0878108 0.0136774 0.1305796
v -0.0898669 0.0136774 0.1305796
v -0.0782081 0.0234508 0.1305796
v 0.0800398 0.0246211 0.1305796
v 0.0782083 0.0234508 0.1305796
v -0.0818836 0.0227195 0.1305796
v -0.0800478 0.0246189 0.1305796
v -0.0782161 0.0234490 0.1305796
v -0.0800396 0.0246211 0.1305796
v 0.0898672 0.0136774 0.1305796
v -0.0878087 0.0136774 0.1305796
v -0.0898669 0.0136774 0.1305796
v -0.0898650 0.0136774 0.1305796
v 0.0898653 0.0136774 0.1305796
v 0.0878090 0.0136774 0.1305796
v 0.0891187 0.0172638 0.1305796
v 0.0898653 0.0136774 0.1305796
v 0.0782163 0.0234490 0.1305796
v 0.0800398 0.0246211 0.1305796
v 0.0800480 0.0246189 0.1305796
v -0.0849981 0.0206384 0.1305796
v -0.0838012 0.0237133 0.1305796
v -0.0818836 0.0227195 0.1305796
v 0.0849983 0.0206384 0.1305796
v 0.0838014 0.0237133 0.1305796
v 0.0869888 0.0211299 0.1305796
v 0.0818838 0.0227195 0.1305796
v 0.0800480 0.0246189 0.1305796
v -0.0878087 0.0136774 0.1305796
v -0.0891184 0.0172638 0.1305796
v -0.0870792 0.0175239 0.1305796
v 0.0870794 0.0175239 0.1305796
v -0.0869886 0.0211299 0.1305796
v -0.0898650 0.0136774 0.1305796
v -0.0891184 0.0172638 0.1258399
v -0.0891184 0.0172638 0.1305796
v 0.0869888 0.0211299 0.1305796
v 0.0891187 0.0172638 0.1258399
v 0.0891187 0.0172638 0.1305796
v -0.0891184 0.0172638 0.1305796
v -0.0869886 0.0211299 0.1258399
v -0.0869886 0.0211299 0.1305796
v -0.0898669 0.0136774 0.1258399
v -0.0800396 0.0246211 0.1305796
v 0.0800398 0.0246211 0.1258399
v 0.0800398 0.0246211 0.1305796
v -0.0838012 0.0237133 0.1305796
v -0.0800478 0.0246189 0.1258399
v -0.0800478 0.0246189 0.1305796
v -0.0800478 0.0246189 0.1305796
v -0.0800396 0.0246211 0.1258399
v -0.0800396 0.0246211 0.1305796
v 0.0898672 0.0136774 0.1258399
v -0.0898650 0.0136774 0.1258399
v 0.0898653 0.0136774 0.1305796
v 0.0898672 0.0136774 0.1258399
v 0.0898672 0.0136774 0.1305796
v 0.0891187 0.0172638 0.1305796
v 0.0898653 0.0136774 0.1258399
v 0.0898653 0.0136774 0.1305796
v 0.0800398 0.0246211 0.1305796
v 0.0800480 0.0246189 0.1258399
v 0.0800480 0.0246189 0.1305796
v -0.0869886 0.0211299 0.1305796
v -0.0838012 0.0237133 0.1258399
v -0.0838012 0.0237133 0.1305796
v 0.0838014 0.0237133 0.1305796
v 0.0869888 0.0211299 0.1258399
v 0.0869888 0.0211299 0.1305796
v 0.0800480 0.0246189 0.1305796
v 0.0838014 0.0237133 0.1258399
v 0.0838014 0.0237133 0.1305796
v -0.0869886 0.0211299 0.1258399
v -0.0838012 0.0136774 0.1258399
v -0.0838012 0.0237133 0.1258399
v 0.0869888 0.0211299 0.1258399
v 0.0838014 0.0136774 0.1258399
v 0.0869888 0.0136774 0.1258399
v 0.0838014 0.0237133 0.1258399
v 0.0800480 0.0136774 0.1258399
v -0.0891184 0.0172638 0.1258399
v -0.0898650 0.0136774 0.1258399
v -0.0891184 0.0136774 0.1258399
v 0.0891187 0.0172638 0.1258399
v 0.0891187 0.0136774 0.1258399
v -0.0869886 0.0136774 0.1258399
v -0.0800396 0.0246211 0.1258399
v 0.0800398 0.0136774 0.1258399
v 0.0800398 0.0246211 0.1258399
v -0.0800478 0.0136774 0.1258399
v -0.0800478 0.0246189 0.1258399
v -0.0800396 0.0136774 0.1258399
v -0.0898650 0.0136774 0.1258399
v 0.0898653 0.0136774 0.1258399
v 0.0891187 0.0136774 0.1258399
v 0.0800480 0.0246189 0.1258399
v -0.1850000 0.0000000 0.1286358
v -0.1821259 0.0000000 0.1315099
v 0.1821259 0.0000000 0.1315099
v -0.0782081 0.0039040 0.1315099
v 0.1850000 0.0000000 -0.1286358
v -0.1821259 0.0000000 0.1315099
v -0.1835629 0.0000000 0.1311249
v -0.1846149 0.0000000 0.1300728
v 0.1823789 0.0000000 -0.1268133
v 0.1823710 0.0010266 -0.1270338
v 0.1823710 0.0000000 -0.1282300
v -0.1821259 0.0010266 -0.1302752
v -0.1823751 0.0000000 -0.1296467
v -0.1821259 0.0000000 -0.1315099
v 0.1821259 0.0000000 0.1315099
v 0.1809622 0.0000000 0.1292671
v 0.1835629 0.0000000 0.1311249
v 0.1819993 0.0000000 0.1282300
v 0.1850000 0.0000000 0.1286358
v 0.1846149 0.0000000 0.1300728
v -0.1809622 0.0000000 0.1292671
v -0.1821259 0.0000000 0.1315099
v -0.1835629 0.0000000 0.1311249
v -0.1823770 0.0000000 -0.1292671
v -0.1846149 0.0000000 -0.1300728
v -0.1835629 0.0000000 -0.1311249
v -0.1823838 0.0010266 -0.1270337
v -0.1823789 0.0000000 -0.1268133
v -0.1823838 0.0000000 -0.1282300
v 0.1846149 0.0000000 -0.1300728
v 0.1823847 0.0000000 -0.1292671
v 0.1835629 0.0000000 -0.1311249
v -0.1850000 0.0000000 0.1286358
v -0.1819993 0.0000000 0.1282300
v -0.1846149 0.0000000 0.1300728
v 0.1795455 0.0000000 0.1296467
v -0.1823751 0.0000000 -0.1296467
v -0.1821259 0.0000000 -0.1315099
v -0.1823838 0.0000000 -0.1282300
v -0.1850000 0.0000000 -0.1286358
v 0.1850000 0.0000000 -0.1286358
v 0.1823710 0.0000000 -0.1282300
v 0.1821341 0.0000000 -0.1296467
v 0.1821259 0.0000000 -0.1315099
v -0.1823789 0.0000000 -0.1268133
v 0.1823789 0.0000000 0.1268133
v -0.1850000 0.0000000 -0.1286358
v -0.1846149 0.0000000 -0.1300728
v -0.1846149 0.0000000 -0.1300728
v -0.1835629 0.0000000 -0.1311249
v -0.1835629 0.0000000 -0.1311249
v -0.1821259 0.0000000 -0.1315099
v 0.1850000 0.0000000 0.1286358
v 0.1846149 0.0000000 0.1300728
v 0.1846149 0.0000000 0.1300728
v 0.1835629 0.0000000 0.1311249
v 0.1835629 0.0000000 0.1311249
v 0.1821259 0.0000000 0.1315099
v 0.1821259 0.0000000 -0.1315099
v 0.1835629 0.0000000 -0.1311249
v 0.1835629 0.0000000 -0.1311249
v 0.1846149 0.0000000 -0.1300728
v 0.1846149 0.0000000 -0.1300728
v 0.1850000 0.0000000 -0.1286358
v 0.1823710 0.0000000 -0.1282300
v 0.1823847 0.0010266 -0.1280587
v 0.1823847 0.0000000 -0.1292671
v 0.1823847 0.0000000 -0.1292671
v 0.1821341 0.0010266 -0.1284338
v 0.1821341 0.0000000 -0.1296467
v -0.1823789 0.0000000 0.1268133
v -0.1819993 0.0010266 0.1264164
v -0.1819993 0.0000000 0.1282300
v -0.1821259 0.0010266 -0.1302752
v -0.1821259 0.0000000 -0.1315099
v -0.1823789 0.0000000 -0.1268133
v -0.1823789 0.0010266 0.1250163
v -0.1823789 0.0000000 0.1268133
v 0.1809622 0.0010266 0.1274413
v 0.1819993 0.0000000 0.1282300
v 0.1809622 0.0000000 0.1292671
v 0.1821259 0.0010266 -0.1302752
v 0.1821259 0.0136774 -0.1315099
v 0.1821259 0.0000000 -0.1315099
v 0.1795455 0.0010266 0.1278164
v 0.1809622 0.0000000 0.1292671
v 0.1795455 0.0000000 0.1296467
v 0.1823789 0.0010266 0.1250163
v 0.1823789 0.0000000 -0.1268133
v 0.1823789 0.0000000 0.1268133
v -0.1795455 0.0010266 0.1278164
v 0.1795455 0.0000000 0.1296467
v -0.1795455 0.0000000 0.1296467
v 0.1819993 0.0010266 0.1264164
v 0.1823789 0.0000000 0.1268133
v 0.1819993 0.0000000 0.1282300
v 0.1821341 0.0000000 -0.1296467
v 0.1821259 0.0010266 -0.1302752
v 0.1821259 0.0000000 -0.1315099
v -0.1823751 0.0010266 -0.1284338
v -0.1823770 0.0000000 -0.1292671
v -0.1823751 0.0000000 -0.1296467
v -0.1809622 0.0000000 0.1292671
v -0.1795455 0.0010266 0.1278164
v -0.1795455 0.0000000 0.1296467
v -0.1819993 0.0000000 0.1282300
v -0.1809622 0.0010266 0.1274413
v -0.1809622 0.0000000 0.1292671
v -0.1823770 0.0010266 -0.1280587
v -0.1823838 0.0000000 -0.1282300
v -0.1823770 0.0000000 -0.1292671
v 0.0782083 0.0039040 0.1305796
v -0.0782081 0.0039040 0.1315099
v 0.0782083 0.0039040 0.1315099
v -0.0818836 0.0046354 0.1305796
v -0.0849981 0.0067165 0.1315099
v -0.0818836 0.0046354 0.1315099
v -0.0782081 0.0039040 0.1305796
v -0.0782161 0.0039059 0.1315099
v -0.0782081 0.0039040 0.1315099
v 0.0782163 0.0039059 0.1305796
v 0.0782083 0.0039040 0.1315099
v 0.0782163 0.0039059 0.1315099
v 0.0818838 0.0046354 0.1305796
v 0.0782163 0.0039059 0.1315099
v 0.0818838 0.0046354 0.1315099
v 0.0849983 0.0067165 0.1305796
v 0.0818838 0.0046354 0.1315099
v 0.0849983 0.0067165 0.1315099
v 0.0870794 0.0098310 0.1305796
v 0.0849983 0.0067165 0.1315099
v 0.0870794 0.0098310 0.1315099
v 0.0878090 0.0136774 0.1305796
v 0.0870794 0.0098310 0.1315099
v 0.0878090 0.0136774 0.1315099
v -0.0870792 0.0098310 0.1305796
v -0.0878087 0.0136774 0.1315099
v -0.0870792 0.0098310 0.1315099
v -0.0782161 0.0039059 0.1305796
v -0.0818836 0.0046354 0.1315099
v -0.0782161 0.0039059 0.1315099
v -0.0849981 0.0067165 0.1305796
v -0.0870792 0.0098310 0.1315099
v -0.0849981 0.0067165 0.1315099
v 0.0800398 0.0027337 0.1305796
v -0.0782081 0.0039040 0.1305796
v 0.0782083 0.0039040 0.1305796
v -0.0800478 0.0027360 0.1305796
v -0.0818836 0.0046354 0.1305796
v -0.0782161 0.0039059 0.1305796
v -0.0800396 0.0027337 0.1305796
v -0.0782161 0.0039059 0.1305796
v -0.0782081 0.0039040 0.1305796
v 0.0891187 0.0100911 0.1305796
v 0.0870794 0.0098310 0.1305796
v 0.0782163 0.0039059 0.1305796
v -0.0838012 0.0036416 0.1305796
v -0.0849981 0.0067165 0.1305796
v -0.0818836 0.0046354 0.1305796
v 0.0849983 0.0067165 0.1305796
v 0.0838014 0.0036416 0.1305796
v 0.0818838 0.0046354 0.1305796
v 0.0818838 0.0046354 0.1305796
v 0.0800480 0.0027360 0.1305796
v -0.0891184 0.0100911 0.1305796
v -0.0870792 0.0098310 0.1305796
v 0.0869888 0.0062249 0.1305796
v -0.0869886 0.0062249 0.1305796
v -0.0891184 0.0100911 0.1258399
v -0.0898650 0.0136774 0.1305796
v -0.0891184 0.0100911 0.1305796
v 0.0891187 0.0100911 0.1258399
v 0.0869888 0.0062249 0.1305796
v 0.0891187 0.0100911 0.1305796
v -0.0869886 0.0062249 0.1258399
v -0.0891184 0.0100911 0.1305796
v -0.0869886 0.0062249 0.1305796
v 0.0800398 0.0027337 0.1258399
v -0.0800396 0.0027337 0.1305796
v 0.0800398 0.0027337 0.1305796
v -0.0800478 0.0027360 0.1258399
v -0.0838012 0.0036416 0.1305796
v -0.0800478 0.0027360 0.1305796
v -0.0800396 0.0027337 0.1258399
v -0.0800478 0.0027360 0.1305796
v -0.0800396 0.0027337 0.1305796
v 0.0898653 0.0136774 0.1258399
v 0.0891187 0.0100911 0.1305796
v 0.0898653 0.0136774 0.1305796
v 0.0800480 0.0027360 0.1258399
v 0.0800398 0.0027337 0.1305796
v 0.0800480 0.0027360 0.1305796
v -0.0838012 0.0036416 0.1258399
v -0.0869886 0.0062249 0.1305796
v -0.0838012 0.0036416 0.1305796
v 0.0869888 0.0062249 0.1258399
v 0.0838014 0.0036416 0.1305796
v 0.0869888 0.0062249 0.1305796
v 0.0838014 0.0036416 0.1258399
v 0.0800480 0.0027360 0.1305796
v 0.0838014 0.0036416 0.1305796
v -0.0869886 0.0062249 0.1258399
v -0.0838012 0.0036416 0.1258399
v 0.0869888 0.0062249 0.1258399
v 0.0838014 0.0036416 0.1258399
v 0.0800480 0.0027360 0.1258399
v -0.0891184 0.0100911 0.1258399
v 0.0891187 0.0100911 0.1258399
v -0.0891184 0.0100911 0.1258399
v -0.0800396 0.0027337 0.1258399
v 0.0800398 0.0027337 0.1258399
v -0.0800478 0.0027360 0.1258399
v 0.0898653 0.0136774 0.1258399
v -0.1850000 0.0273548 -0.1286358
v -0.0818836 0.0227195 0.1315099
v -0.0782161 0.0234490 0.1315099
v -0.0782081 0.0234508 0.1315099
v 0.0782083 0.0234508 0.1315099
v 0.0782163 0.0234490 0.1315099
v 0.0818838 0.0227195 0.1315099
v 0.0878090 0.0136774 0.1315099
v 0.0878108 0.0136774 0.1315099
v 0.1821259 0.0136774 0.1315099
v -0.1821259 0.0136774 0.1315099
v -0.0878106 0.0136774 0.1315099
v -0.0878087 0.0136774 0.1315099
v -0.0870792 0.0175239 0.1315099
v -0.1821259 0.0136774 0.1315099
v -0.0878106 0.0136774 0.1315099
v -0.1821259 0.0273548 0.1315099
v -0.0870792 0.0175239 0.1315099
v 0.0878090 0.0136774 0.1315099
v 0.0878108 0.0136774 0.1315099
v 0.0870794 0.0175239 0.1315099
v 0.0870794 0.0175239 0.1315099
v -0.0849981 0.0206384 0.1315099
v 0.0849983 0.0206384 0.1315099
v 0.0818838 0.0227195 0.1315099
v -0.0818836 0.0227195 0.1315099
v -0.0818836 0.0227195 0.1315099
v -0.0782081 0.0234508 0.1315099
v 0.0782083 0.0234508 0.1315099
v 0.0818838 0.0227195 0.1315099
v 0.1821259 0.0273548 0.1315099
v 0.1850000 0.0273548 0.1286358
v -0.1835629 0.0273548 0.1311249
v -0.1846149 0.0273548 0.1300728
v -0.1850000 0.0273548 0.1286358
v 0.1823789 0.0273548 -0.1268133
v 0.1823710 0.0273548 -0.1282300
v 0.1823710 0.0263282 -0.1270338
v -0.1823751 0.0273548 -0.1296467
v -0.1823751 0.0263282 -0.1284338
v -0.1821259 0.0263282 -0.1302752
v -0.1823789 0.0273548 -0.1268133
v -0.1823789 0.0263282 -0.1256337
v -0.1823838 0.0263282 -0.1270337
v 0.1821259 0.0273548 -0.1315099
v -0.1850000 0.0136774 -0.1286358
v -0.1846149 0.0136774 -0.1300728
v -0.1835629 0.0136774 -0.1311249
v 0.1846149 0.0136774 0.1300728
v 0.1850000 0.0136774 0.1286358
v 0.1850000 0.0273548 0.1286358
v 0.1835629 0.0136774 0.1311249
v 0.1846149 0.0136774 0.1300728
v 0.1846149 0.0273548 0.1300728
v 0.1835629 0.0136774 0.1311249
v 0.1821259 0.0136774 -0.1315099
v 0.1846149 0.0136774 -0.1300728
v 0.1835629 0.0136774 -0.1311249
v 0.1835629 0.0273548 -0.1311249
v 0.1850000 0.0136774 -0.1286358
v 0.1846149 0.0136774 -0.1300728
v 0.1846149 0.0273548 -0.1300728
v 0.1823710 0.0273548 -0.1282300
v 0.1823847 0.0273548 -0.1292671
v 0.1823847 0.0263282 -0.1280587
v 0.1823847 0.0273548 -0.1292671
v 0.1821341 0.0273548 -0.1296467
v 0.1821341 0.0263282 -0.1284338
v -0.1823789 0.0273548 0.1268133
v -0.1819993 0.0273548 0.1282300
v -0.1819993 0.0263283 0.1264164
v -0.1821259 0.0273548 -0.1315099
v -0.1823789 0.0273548 0.1268133
v 0.1819993 0.0273548 0.1282300
v 0.1819993 0.0263283 0.1264164
v 0.1809622 0.0263283 0.1274413
v 0.1821259 0.0136774 -0.1302752
v 0.1821259 0.0263282 -0.1302752
v 0.1809622 0.0273548 0.1292671
v 0.1809622 0.0263283 0.1274413
v 0.1795455 0.0263283 0.1278164
v 0.1823789 0.0263282 -0.1256337
v 0.1795455 0.0263283 0.1278164
v 0.1823789 0.0273548 0.1268133
v 0.1823789 0.0263283 0.1250163
v 0.1819993 0.0263283 0.1264164
v 0.1821341 0.0273548 -0.1296467
v 0.1821259 0.0273548 -0.1315099
v 0.1821259 0.0263282 -0.1302752
v -0.1823770 0.0273548 -0.1292671
v -0.1823770 0.0263282 -0.1280587
v -0.1823751 0.0263282 -0.1284338
v -0.1809622 0.0273548 0.1292671
v -0.1795455 0.0273548 0.1296467
v -0.1795455 0.0263283 0.1278164
v -0.1819993 0.0273548 0.1282300
v -0.1809622 0.0273548 0.1292671
v -0.1809622 0.0263283 0.1274413
v -0.1823838 0.0273548 -0.1282300
v -0.1823838 0.0263282 -0.1270337
v -0.1823770 0.0263282 -0.1280587
v -0.0782081 0.0234508 0.1305796
v -0.0849981 0.0206384 0.1305796
v 0.0878090 0.0136774 0.1305796
v -0.0782161 0.0234490 0.1315099
v -0.0782161 0.0234490 0.1305796
v -0.0782081 0.0234508 0.1305796
v 0.0782083 0.0234508 0.1315099
v 0.0782083 0.0234508 0.1305796
v 0.0782163 0.0234490 0.1305796
v 0.0782163 0.0234490 0.1305796
v 0.0818838 0.0227195 0.1305796
v -0.0878106 0.0136774 0.1305796
v 0.0849983 0.0206384 0.1305796
v 0.0870794 0.0175239 0.1305796
v -0.0878087 0.0136774 0.1305796
v -0.0818836 0.0227195 0.1305796
v -0.0870792 0.0175239 0.1305796
v -0.0782161 0.0234490 0.1305796
v -0.0800478 0.0246189 0.1305796
v -0.0800396 0.0246211 0.1305796
v -0.0878087 0.0136774 0.1305796
v 0.0878108 0.0136774 0.1305796
v 0.0878090 0.0136774 0.1305796
v 0.0898653 0.0136774 0.1305796
v 0.0782163 0.0234490 0.1305796
v -0.0898650 0.0136774 0.1305796
v -0.0898650 0.0136774 0.1258399
v 0.0869888 0.0211299 0.1258399
v -0.0891184 0.0172638 0.1258399
v -0.0800396 0.0246211 0.1258399
v -0.0838012 0.0237133 0.1258399
v -0.0800478 0.0246189 0.1258399
v -0.0898669 0.0136774 0.1258399
v 0.0898653 0.0136774 0.1258399
v 0.0891187 0.0172638 0.1258399
v 0.0800398 0.0246211 0.1258399
v -0.0869886 0.0211299 0.1258399
v 0.0838014 0.0237133 0.1258399
v 0.0800480 0.0246189 0.1258399
v -0.0891184 0.0172638 0.1258399
v -0.1850000 0.0000000 -0.1286358
v -0.0782081 0.0039040 0.1315099
v -0.0782161 0.0039059 0.1315099
v -0.0818836 0.0046354 0.1315099
v 0.0818838 0.0046354 0.1315099
v 0.0782163 0.0039059 0.1315099
v 0.0782083 0.0039040 0.1315099
v -0.0878087 0.0136774 0.1315099
v 0.1821259 0.0136774 0.1315099
v 0.0878108 0.0136774 0.1315099
v 0.0878090 0.0136774 0.1315099
v 0.0870794 0.0098310 0.1315099
v 0.0870794 0.0098310 0.1315099
v -0.0878087 0.0136774 0.1315099
v -0.0878106 0.0136774 0.1315099
v -0.0870792 0.0098310 0.1315099
v -0.0870792 0.0098310 0.1315099
v 0.0849983 0.0067165 0.1315099
v -0.0849981 0.0067165 0.1315099
v -0.0818836 0.0046354 0.1315099
v 0.0818838 0.0046354 0.1315099
v 0.0782083 0.0039040 0.1315099
v -0.0782081 0.0039040 0.1315099
v -0.0818836 0.0046354 0.1315099
v -0.1821259 0.0000000 0.1315099
v 0.1850000 0.0000000 0.1286358
v -0.1835629 0.0000000 0.1311249
v -0.1846149 0.0000000 0.1300728
v -0.1850000 0.0000000 0.1286358
v 0.1823789 0.0000000 -0.1268133
v 0.1823789 0.0010266 -0.1256337
v 0.1823710 0.0010266 -0.1270338
v -0.1821259 0.0010266 -0.1302752
v -0.1823751 0.0010266 -0.1284338
v -0.1823751 0.0000000 -0.1296467
v -0.1795455 0.0000000 0.1296467
v -0.1823838 0.0010266 -0.1270337
v -0.1823789 0.0010266 -0.1256337
v -0.1823789 0.0000000 -0.1268133
v -0.1823789 0.0000000 0.1268133
v 0.1823789 0.0000000 -0.1268133
v 0.1850000 0.0000000 0.1286358
v 0.1846149 0.0000000 0.1300728
v 0.1835629 0.0000000 -0.1311249
v 0.1846149 0.0000000 -0.1300728
v 0.1823710 0.0000000 -0.1282300
v 0.1823710 0.0010266 -0.1270338
v 0.1823847 0.0010266 -0.1280587
v 0.1823847 0.0000000 -0.1292671
v 0.1823847 0.0010266 -0.1280587
v 0.1821341 0.0010266 -0.1284338
v -0.1823789 0.0000000 0.1268133
v -0.1823789 0.0010266 0.1250163
v -0.1819993 0.0010266 0.1264164
v -0.1823789 0.0010266 -0.1256337
v 0.1809622 0.0010266 0.1274413
v 0.1819993 0.0010266 0.1264164
v 0.1819993 0.0000000 0.1282300
v 0.1795455 0.0010266 0.1278164
v 0.1809622 0.0010266 0.1274413
v 0.1809622 0.0000000 0.1292671
v 0.1823789 0.0010266 -0.1256337
v 0.1795455 0.0010266 0.1278164
v 0.1819993 0.0010266 0.1264164
v 0.1823789 0.0010266 0.1250163
v 0.1823789 0.0000000 0.1268133
v 0.1821341 0.0000000 -0.1296467
v 0.1821341 0.0010266 -0.1284338
v 0.1821259 0.0010266 -0.1302752
v -0.1823751 0.0010266 -0.1284338
v -0.1823770 0.0010266 -0.1280587
v -0.1823770 0.0000000 -0.1292671
v -0.1809622 0.0000000 0.1292671
v -0.1809622 0.0010266 0.1274413
v -0.1795455 0.0010266 0.1278164
v -0.1819993 0.0000000 0.1282300
v -0.1819993 0.0010266 0.1264164
v -0.1809622 0.0010266 0.1274413
v -0.1823770 0.0010266 -0.1280587
v -0.1823838 0.0010266 -0.1270337
v -0.1823838 0.0000000 -0.1282300
v -0.0782081 0.0039040 0.1305796
v -0.0849981 0.0067165 0.1305796
v -0.0782081 0.0039040 0.1305796
v -0.0782161 0.0039059 0.1305796
v -0.0782161 0.0039059 0.1315099
v 0.0782163 0.0039059 0.1305796
v 0.0782083 0.0039040 0.1305796
v 0.0782083 0.0039040 0.1315099
v 0.0782163 0.0039059 0.1305796
v 0.0818838 0.0046354 0.1305796
v 0.0849983 0.0067165 0.1305796
v 0.0870794 0.0098310 0.1305796
v -0.0878087 0.0136774 0.1305796
v -0.0818836 0.0046354 0.1305796
v -0.0870792 0.0098310 0.1305796
v -0.0800396 0.0027337 0.1305796
v -0.0800478 0.0027360 0.1305796
v -0.0782161 0.0039059 0.1305796
v 0.0782163 0.0039059 0.1305796
v 0.0800480 0.0027360 0.1305796
v 0.0800398 0.0027337 0.1305796
v -0.0898650 0.0136774 0.1258399
v 0.0869888 0.0062249 0.1258399
v -0.0891184 0.0100911 0.1258399
v -0.0800396 0.0027337 0.1258399
v -0.0838012 0.0036416 0.1258399
v -0.0800478 0.0027360 0.1258399
v 0.0891187 0.0100911 0.1258399
v 0.0800398 0.0027337 0.1258399
v -0.0869886 0.0062249 0.1258399
v 0.0838014 0.0036416 0.1258399
v 0.0800480 0.0027360 0.1258399
vt 0.6409427 0.7019857
vt 0.6521927 0.0068057
vt 0.6521927 0.7019857
vt 0.5991538 0.2875855
vt 0.5991538 0.7103319
vt 0.5959426 0.9911895
vt 0.6184427 0.6991827
vt 0.6296927 0.0038759
vt 0.6296927 0.6991827
vt 0.5959426 0.0067272
vt 0.6071926 0.0028433
vt 0.6071926 0.0067272
vt 0.5959426 0.0028433
vt 0.6071926 0.0000000
vt 0.6071926 0.0028433
vt 0.6409427 0.7058474
vt 0.6521927 0.7019857
vt 0.6521927 0.7058474
vt 0.6859427 0.0126768
vt 0.6867871 0.0120815
vt 0.6867871 0.0158643
vt 0.6634427 0.6969500
vt 0.6642870 0.6986433
vt 0.6634427 0.7019804
vt 0.5959426 0.9922322
vt 0.5940998 0.9890872
vt 0.5944117 0.9852583
vt 0.5935811 1.0000000
vt 0.5932477 0.9918902
vt 0.5947618 0.9989594
vt 0.5959426 0.0077699
vt 0.5940998 0.0109149
vt 0.5956262 0.0038860
vt 0.3810164 0.0010407
vt 0.3816785 0.0070892
vt 0.3801520 0.0038839
vt 0.6634427 0.6892924
vt 0.6642870 0.6898884
vt 0.6634427 0.6931214
vt 0.3810164 0.9989574
vt 0.3816785 0.9929297
vt 0.3825306 0.9928926
vt 0.5935811 0.0000020
vt 0.5932477 0.0081119
vt 0.5920837 0.0070859
vt 0.5956262 0.9961162
vt 0.5944117 0.0147438
vt 0.3813666 0.0070943
vt 0.3798357 0.0077679
vt 0.5947618 0.0010427
vt 0.3821972 0.0000000
vt 0.3825306 0.0070709
vt 0.3821971 0.9999981
vt 0.3836946 0.9929141
vt 0.3801520 0.9961141
vt 0.3813666 0.9922526
vt 0.3836946 0.0070840
vt 0.5920837 0.9929160
vt 0.6521927 0.0029012
vt 0.6409427 0.0068057
vt 0.6409427 0.0029012
vt 0.6521927 0.0000000
vt 0.6409427 0.0029012
vt 0.6409427 0.0000000
vt 0.6634427 0.7268452
vt 0.6652000 0.7517100
vt 0.6634427 0.7517100
vt 0.6296927 0.0000000
vt 0.6184427 0.0038759
vt 0.6184427 0.0000000
vt 0.6071926 0.9950734
vt 0.5959426 0.9979166
vt 0.5959426 0.9950734
vt 0.6071926 0.9911895
vt 0.5959426 0.9950734
vt 0.5959426 0.9911895
vt 0.6651999 0.7268451
vt 0.6669572 0.7517099
vt 0.6651999 0.7517099
vt 0.6296927 0.7030745
vt 0.6184427 0.7059394
vt 0.6184427 0.7030745
vt 0.6296927 0.6991827
vt 0.6184427 0.7030745
vt 0.6184427 0.6991827
vt 0.6859427 0.0088491
vt 0.6867871 0.0093113
vt 0.6867871 0.0120815
vt 0.6859427 0.0060460
vt 0.6867871 0.0083116
vt 0.6867871 0.0093113
vt 0.6634427 0.0038367
vt 0.6642871 0.0049015
vt 0.6642871 0.0086932
vt 0.6746927 0.7019804
vt 0.6642870 0.6986433
vt 0.6746927 0.6986433
vt 0.6634427 0.6892924
vt 0.6642871 0.0086932
vt 0.6642870 0.6861044
vt 0.5932477 0.9918902
vt 0.5925604 0.9890872
vt 0.5940998 0.9890872
vt 0.6971927 0.0000000
vt 0.6867871 0.0033364
vt 0.6859427 0.0000000
vt 0.5940998 0.9890872
vt 0.5928687 0.9852583
vt 0.5944117 0.9852583
vt 0.6859427 0.0126768
vt 0.6867871 0.6931518
vt 0.6859427 0.6980075
vt 0.5944117 0.9852583
vt 0.5928687 0.0147438
vt 0.5944117 0.0147438
vt 0.6859427 0.6980075
vt 0.6867871 0.6969562
vt 0.6859427 0.7018568
vt 0.6859427 0.0050342
vt 0.6867871 0.0033364
vt 0.6867871 0.0083116
vt 0.6634427 0.6959241
vt 0.6642870 0.6936720
vt 0.6634427 0.6969500
vt 0.5940998 0.0109149
vt 0.5928687 0.0147438
vt 0.5925604 0.0109149
vt 0.5932477 0.0081119
vt 0.5925604 0.0109149
vt 0.5917183 0.0081119
vt 0.6634427 0.6931214
vt 0.6642870 0.6926582
vt 0.6634427 0.6959241
vt 0.7534576 0.0183513
vt 0.7542222 0.4410977
vt 0.7534576 0.4410977
vt 0.7533622 0.0000000
vt 0.7541973 0.0084175
vt 0.7534328 0.0084175
vt 0.6189004 0.7059394
vt 0.6188982 0.7076292
vt 0.6188982 0.7059394
vt 0.7534575 0.0183297
vt 0.7542222 0.0183513
vt 0.7534576 0.0183513
vt 0.7534576 0.4410977
vt 0.7542221 0.4411193
vt 0.7534575 0.4411193
vt 0.7534575 0.4411193
vt 0.7541973 0.4510314
vt 0.7534328 0.4510314
vt 0.7534328 0.4510314
vt 0.7541267 0.4594490
vt 0.7533622 0.4594490
vt 0.6189027 0.7059394
vt 0.6189004 0.7076291
vt 0.6189004 0.7059394
vt 0.6538407 0.7311566
vt 0.6526510 0.7254947
vt 0.6537883 0.7254947
vt 0.6537883 0.7254947
vt 0.6526326 0.7185020
vt 0.6537699 0.7185020
vt 0.6189027 0.7059394
vt 0.6189027 0.7059394
vt 0.6538671 0.7185020
vt 0.6549977 0.7254947
vt 0.6538602 0.7254947
vt 0.7534328 0.0084175
vt 0.7542221 0.0183297
vt 0.7534575 0.0183297
vt 0.6538602 0.7254947
vt 0.6549782 0.7311566
vt 0.6538407 0.7311566
vt 0.6188864 0.7059394
vt 0.6188864 0.7059394
vt 0.6189027 0.7059394
vt 0.7434861 0.0315052
vt 0.7444487 0.4592015
vt 0.7434861 0.4542515
vt 0.7428846 0.0215714
vt 0.7444468 0.0265331
vt 0.7434846 0.0314836
vt 0.7444487 0.0265552
vt 0.6188864 0.7059394
vt 0.6189027 0.7060539
vt 0.6189027 0.7059394
vt 0.6189027 0.7059395
vt 0.6188864 0.7059394
vt 0.7354472 0.4801991
vt 0.7383971 0.4837389
vt 0.7354472 0.4857567
vt 0.7434846 0.4542731
vt 0.7444487 0.4592015
vt 0.7444468 0.4592236
vt 0.7411728 0.0131539
vt 0.7437020 0.0163888
vt 0.7428846 0.0215714
vt 0.7411728 0.4726028
vt 0.7437020 0.4693679
vt 0.7415771 0.4779826
vt 0.7428845 0.4641853
vt 0.7444468 0.4592236
vt 0.7354472 0.0055576
vt 0.7383971 0.0020178
vt 0.7386110 0.0075293
vt 0.7386110 0.4782274
vt 0.7415771 0.0077741
vt 0.6468368 0.7193956
vt 0.6526256 0.7259154
vt 0.6468298 0.7259154
vt 0.6468098 0.7329438
vt 0.6409615 0.7259154
vt 0.6467562 0.7259154
vt 0.6468298 0.7259154
vt 0.6526057 0.7329438
vt 0.6468098 0.7329438
vt 0.6189027 0.7059394
vt 0.7485950 0.0187811
vt 0.7524903 0.4514274
vt 0.7485951 0.4514274
vt 0.7485642 0.0086147
vt 0.7524902 0.0187590
vt 0.7485949 0.0187590
vt 0.7485949 0.0187590
vt 0.7524903 0.0187811
vt 0.7485950 0.0187811
vt 0.6188864 0.7059394
vt 0.6188937 0.7145488
vt 0.6188983 0.7059394
vt 0.6188960 0.7145488
vt 0.6188960 0.7059394
vt 0.6467562 0.7259154
vt 0.6409427 0.7193956
vt 0.6467373 0.7193956
vt 0.7485951 0.4514274
vt 0.7524902 0.4514495
vt 0.7485950 0.4514495
vt 0.7484766 0.0000001
vt 0.7524595 0.0086147
vt 0.7485642 0.0086147
vt 0.7485642 0.4615939
vt 0.7523720 0.4702084
vt 0.7484767 0.4702085
vt 0.7485950 0.4514495
vt 0.7524595 0.4615937
vt 0.7485642 0.4615939
vt 0.7235740 0.4779826
vt 0.7174442 0.4693679
vt 0.7256989 0.4693679
vt 0.7235740 0.0077741
vt 0.7174442 0.0163888
vt 0.7174442 0.0077741
vt 0.7256989 0.0163888
vt 0.7174442 0.0265331
vt 0.7203940 0.4837389
vt 0.7174442 0.4857567
vt 0.7174442 0.4837389
vt 0.7203941 0.0020178
vt 0.7174442 0.0020178
vt 0.7174442 0.4779826
vt 0.7264457 0.4592015
vt 0.7174442 0.0265552
vt 0.7264457 0.0265552
vt 0.7174442 0.4592236
vt 0.7264438 0.4592236
vt 0.7174442 0.4592015
vt 0.6189027 0.7059394
vt 0.6188864 0.7059394
vt 0.6188864 0.7059394
vt 0.7264438 0.0265331
vt 0.6634427 0.7019857
vt 0.6184427 0.0067272
vt 0.6184427 0.9911895
vt 0.6152315 0.2875855
vt 0.6409427 0.6991827
vt 0.6184427 0.0067272
vt 0.6184427 0.0028433
vt 0.6634427 0.7058474
vt 0.7084427 0.0126768
vt 0.7075984 0.0120815
vt 0.7084427 0.0088491
vt 0.6850984 0.6986433
vt 0.6859427 0.6969500
vt 0.6859427 0.7019804
vt 0.1636789 0.9922322
vt 0.1655221 0.9890872
vt 0.1639954 0.9961162
vt 0.1663744 0.9918902
vt 0.1660409 1.0000000
vt 0.1648599 0.9989594
vt 0.1655221 0.0109149
vt 0.1636789 0.0077699
vt 0.1639954 0.0038859
vt 0.3779924 0.0070892
vt 0.3786546 0.0010407
vt 0.3795192 0.0038840
vt 0.6850984 0.6898884
vt 0.6859427 0.6892924
vt 0.6859427 0.6931214
vt 0.3786546 0.9989575
vt 0.3779924 0.9929297
vt 0.3795192 0.9961143
vt 0.1660409 0.0000020
vt 0.1663745 0.0081119
vt 0.1648599 0.0010427
vt 0.1652101 0.9852583
vt 0.3783044 0.0070944
vt 0.3798357 0.0077679
vt 0.3771401 0.0070709
vt 0.3774736 0.0000000
vt 0.3774736 0.9999981
vt 0.3771401 0.9928926
vt 0.3783044 0.9922526
vt 0.3798356 0.9922302
vt 0.3759758 0.0070840
vt 0.1675387 0.9929160
vt 0.6634427 0.0068057
vt 0.6634427 0.0029012
vt 0.6634427 0.0029012
vt 0.6634427 0.0000000
vt 0.6652000 0.7019804
vt 0.6634427 0.7019804
vt 0.6409427 0.0038759
vt 0.6409427 0.0000000
vt 0.6184427 0.9979166
vt 0.6184427 0.9950734
vt 0.6184427 0.9950734
vt 0.6184427 0.9911895
vt 0.6669572 0.7019804
vt 0.6651999 0.7019804
vt 0.6409427 0.7059394
vt 0.6409427 0.7030745
vt 0.6409427 0.7030745
vt 0.6409427 0.6991827
vt 0.7084427 0.0088491
vt 0.7075984 0.0093113
vt 0.7084427 0.0060460
vt 0.7084427 0.0060460
vt 0.7075984 0.0083116
vt 0.7084427 0.0050342
vt 0.6859428 0.0038367
vt 0.6850984 0.0049015
vt 0.6859428 0.0000000
vt 0.6850984 0.6986433
vt 0.6859427 0.7019804
vt 0.6859427 0.6892924
vt 0.6850984 0.0086932
vt 0.6859428 0.0038367
vt 0.1670574 0.9890872
vt 0.1663744 0.9918902
vt 0.1655221 0.9890872
vt 0.7075984 0.0033364
vt 0.6971927 0.0000000
vt 0.7084427 0.0000000
vt 0.1667491 0.9852583
vt 0.1655221 0.9890872
vt 0.1652101 0.9852583
vt 0.7075984 0.6931518
vt 0.7084427 0.0126768
vt 0.7084427 0.6980075
vt 0.1667491 0.0147438
vt 0.1652101 0.9852583
vt 0.1652101 0.0147438
vt 0.7075984 0.6969562
vt 0.7084427 0.6980075
vt 0.7084427 0.7018568
vt 0.7084427 0.0050342
vt 0.7075984 0.0033364
vt 0.7084427 0.0000000
vt 0.6850984 0.6936720
vt 0.6859427 0.6959241
vt 0.6859427 0.6969500
vt 0.1655221 0.0109149
vt 0.1667491 0.0147438
vt 0.1652101 0.0147438
vt 0.1663745 0.0081119
vt 0.1670574 0.0109149
vt 0.1655221 0.0109149
vt 0.6850984 0.6926582
vt 0.6859427 0.6931214
vt 0.6859427 0.6959241
vt 0.7524903 0.4410977
vt 0.7532547 0.0183514
vt 0.7532547 0.4410977
vt 0.7525183 0.0084175
vt 0.7533622 0.0000000
vt 0.7532827 0.0084176
vt 0.7524903 0.0183513
vt 0.7532548 0.0183297
vt 0.7532547 0.0183514
vt 0.7524904 0.4411193
vt 0.7532547 0.4410977
vt 0.7532548 0.4411193
vt 0.7525183 0.4510315
vt 0.7532548 0.4411193
vt 0.7532827 0.4510315
vt 0.7525979 0.4594490
vt 0.7532827 0.4510315
vt 0.7533622 0.4594490
vt 0.6526510 0.7115093
vt 0.6538407 0.7058474
vt 0.6537883 0.7115093
vt 0.6526326 0.7185020
vt 0.6537883 0.7115093
vt 0.6537699 0.7185020
vt 0.6549977 0.7115093
vt 0.6538671 0.7185020
vt 0.6538602 0.7115093
vt 0.7524904 0.0183297
vt 0.7532827 0.0084176
vt 0.7532548 0.0183297
vt 0.6549782 0.7058474
vt 0.6538602 0.7115093
vt 0.6538407 0.7058474
vt 0.7264457 0.4592015
vt 0.7274083 0.0315052
vt 0.7274083 0.4542515
vt 0.7264476 0.0265331
vt 0.7280099 0.0215714
vt 0.7274098 0.0314836
vt 0.7264457 0.0265552
vt 0.7274098 0.0314836
vt 0.7274083 0.0315052
vt 0.7324974 0.4837389
vt 0.7322834 0.4782274
vt 0.7274098 0.4542731
vt 0.7271925 0.0163888
vt 0.7297217 0.0131539
vt 0.7280099 0.0215714
vt 0.7297217 0.4726028
vt 0.7271925 0.4693679
vt 0.7280099 0.4641853
vt 0.7280099 0.4641853
vt 0.7264476 0.4592236
vt 0.7324974 0.0020178
vt 0.7322834 0.0075293
vt 0.7293174 0.4779826
vt 0.7293174 0.0077741
vt 0.6526256 0.7128758
vt 0.6468368 0.7193956
vt 0.6468298 0.7128758
vt 0.6409615 0.7128758
vt 0.6468098 0.7058474
vt 0.6467562 0.7128758
vt 0.6526057 0.7058474
vt 0.6468298 0.7128758
vt 0.6468098 0.7058474
vt 0.7484766 0.0187811
vt 0.7445822 0.4514273
vt 0.7445822 0.0187811
vt 0.7484765 0.4514495
vt 0.7445475 0.4615937
vt 0.7445821 0.4514495
vt 0.7484766 0.4514274
vt 0.7445821 0.4514495
vt 0.7445822 0.4514273
vt 0.6409427 0.7193956
vt 0.6467562 0.7128758
vt 0.6467373 0.7193956
vt 0.7484765 0.0187590
vt 0.7445822 0.0187811
vt 0.7445821 0.0187590
vt 0.7484419 0.4615938
vt 0.7444487 0.4702084
vt 0.7445475 0.4615937
vt 0.7483431 0.0000000
vt 0.7445475 0.0086146
vt 0.7444487 0.0000000
vt 0.7484419 0.0086147
vt 0.7445821 0.0187590
vt 0.7445475 0.0086146
vt 0.7113143 0.4779826
vt 0.7091894 0.4693679
vt 0.7113143 0.0077741
vt 0.7091894 0.0163888
vt 0.7084446 0.0265331
vt 0.6189027 0.7059394
vt 0.7144943 0.0020178
vt 0.7144943 0.4837389
vt 0.7084427 0.4592015
vt 0.7084427 0.0265552
vt 0.7084446 0.4592236
vt 0.7174442 0.0000000
vt 0.6409427 0.0068057
vt 0.5997553 0.2776518
vt 0.5991552 0.2875639
vt 0.5991538 0.2875855
vt 0.5991538 0.7103319
vt 0.5991552 0.7103535
vt 0.5997553 0.7202656
vt 0.6188864 0.7059394
vt 0.6071926 0.7362843
vt 0.6071926 0.9911895
vt 0.6189027 0.7059394
vt 0.6071926 0.2616330
vt 0.6071926 0.2616380
vt 0.6040288 0.2636096
vt 0.6071926 0.0067272
vt 0.6071926 0.2616330
vt 0.5959426 0.0067272
vt 0.6040288 0.2636096
vt 0.6071926 0.7362794
vt 0.6071926 0.7362843
vt 0.6040288 0.7343078
vt 0.6040288 0.7343078
vt 0.6014671 0.2692342
vt 0.6014671 0.7286832
vt 0.5997553 0.7202656
vt 0.5997553 0.2776518
vt 0.5997553 0.2776518
vt 0.5991538 0.2875855
vt 0.5991538 0.7103319
vt 0.5997553 0.7202656
vt 0.5959426 0.9911895
vt 0.6184427 0.0038759
vt 0.5959426 0.0028433
vt 0.5959426 0.0000000
vt 0.6409427 0.7019857
vt 0.6859427 0.0126768
vt 0.6859427 0.0088491
vt 0.6867871 0.0120815
vt 0.6634427 0.6969500
vt 0.6642870 0.6936720
vt 0.6642870 0.6986433
vt 0.6634427 0.6892924
vt 0.6642870 0.6861044
vt 0.6642870 0.6898884
vt 0.3798357 0.9922302
vt 0.6521927 0.0068057
vt 0.6521927 0.0029012
vt 0.6652000 0.7268452
vt 0.6296927 0.0000000
vt 0.6296927 0.0038759
vt 0.6184427 0.0038759
vt 0.6071926 0.9950734
vt 0.6071926 0.9979166
vt 0.5959426 0.9979166
vt 0.6071926 0.9950734
vt 0.6669572 0.7268451
vt 0.6296927 0.7030745
vt 0.6296927 0.7059394
vt 0.6184427 0.7059394
vt 0.6296927 0.6991827
vt 0.6296927 0.7030745
vt 0.6184427 0.7030745
vt 0.6859427 0.0088491
vt 0.6859427 0.0060460
vt 0.6867871 0.0093113
vt 0.6859427 0.0060460
vt 0.6859427 0.0050342
vt 0.6867871 0.0083116
vt 0.6634427 0.0038367
vt 0.6634427 0.0000000
vt 0.6642871 0.0049015
vt 0.6634427 0.7019804
vt 0.6634427 0.0038367
vt 0.5932477 0.9918902
vt 0.5917183 0.9918902
vt 0.5925604 0.9890872
vt 0.6971927 0.0033364
vt 0.6867871 0.0033364
vt 0.5940998 0.9890872
vt 0.5925604 0.9890872
vt 0.5928687 0.9852583
vt 0.6867871 0.0158643
vt 0.5928687 0.9852583
vt 0.6859427 0.6980075
vt 0.6867871 0.6931518
vt 0.6867871 0.6969562
vt 0.6859427 0.0050342
vt 0.6859427 0.0000000
vt 0.6867871 0.0033364
vt 0.6634427 0.6959241
vt 0.6642870 0.6926582
vt 0.6642870 0.6936720
vt 0.5940998 0.0109149
vt 0.5944117 0.0147438
vt 0.5928687 0.0147438
vt 0.5932477 0.0081119
vt 0.5940998 0.0109149
vt 0.5925604 0.0109149
vt 0.6634427 0.6931214
vt 0.6642870 0.6898884
vt 0.6642870 0.6926582
vt 0.7542222 0.0183513
vt 0.7541267 0.0000000
vt 0.6189004 0.7076292
vt 0.7534575 0.0183297
vt 0.7542221 0.0183297
vt 0.7542222 0.0183513
vt 0.7534576 0.4410977
vt 0.7542222 0.4410977
vt 0.7542221 0.4411193
vt 0.7542221 0.4411193
vt 0.7541973 0.4510314
vt 0.6189027 0.7076291
vt 0.6527034 0.7311566
vt 0.6526510 0.7254947
vt 0.6550046 0.7185020
vt 0.7541973 0.0084175
vt 0.6549977 0.7254947
vt 0.7434846 0.0314836
vt 0.7444468 0.0265331
vt 0.7444487 0.0265552
vt 0.6189027 0.7059394
vt 0.6189027 0.7059395
vt 0.6189027 0.7059394
vt 0.6189027 0.7060538
vt 0.7434846 0.4542731
vt 0.7354472 0.0000000
vt 0.6526326 0.7193956
vt 0.6410151 0.7329438
vt 0.6526256 0.7259154
vt 0.7524903 0.0187811
vt 0.7524595 0.0086147
vt 0.7524902 0.0187590
vt 0.6188960 0.7145488
vt 0.6188983 0.7145488
vt 0.6409615 0.7259154
vt 0.7524903 0.4514274
vt 0.7523719 0.0000000
vt 0.7524595 0.4615937
vt 0.7524902 0.4514495
vt 0.6189027 0.7059394
vt 0.6634427 0.0068057
vt 0.6152315 0.2875855
vt 0.6152300 0.2875639
vt 0.6146300 0.2776518
vt 0.6146300 0.7202656
vt 0.6152300 0.7103535
vt 0.6152315 0.7103319
vt 0.6189027 0.7059394
vt 0.6188864 0.7059394
vt 0.6071926 0.7362843
vt 0.6071926 0.7362794
vt 0.6103565 0.7343078
vt 0.6103565 0.7343078
vt 0.6071926 0.2616380
vt 0.6071926 0.2616330
vt 0.6103565 0.2636096
vt 0.6103565 0.2636096
vt 0.6129182 0.7286832
vt 0.6129182 0.2692342
vt 0.6146300 0.2776518
vt 0.6146300 0.7202656
vt 0.6152315 0.7103319
vt 0.6152315 0.2875855
vt 0.6146300 0.2776518
vt 0.6184427 0.0067272
vt 0.6409427 0.0038759
vt 0.6184427 0.0028433
vt 0.6184427 0.0000000
vt 0.6634427 0.7019857
vt 0.7084427 0.0126768
vt 0.7075984 0.0158643
vt 0.7075984 0.0120815
vt 0.6850984 0.6986433
vt 0.6850984 0.6936720
vt 0.6859427 0.6969500
vt 0.1652101 0.0147438
vt 0.6850984 0.6898884
vt 0.6850984 0.6861044
vt 0.6859427 0.6892924
vt 0.1675387 0.0070859
vt 0.3759758 0.9929141
vt 0.6409427 0.0038759
vt 0.6184427 0.9979166
vt 0.6409427 0.7059394
vt 0.6409427 0.7030745
vt 0.7084427 0.0088491
vt 0.7075984 0.0120815
vt 0.7075984 0.0093113
vt 0.7084427 0.0060460
vt 0.7075984 0.0093113
vt 0.7075984 0.0083116
vt 0.6859428 0.0038367
vt 0.6850984 0.0086932
vt 0.6850984 0.0049015
vt 0.6850984 0.6861044
vt 0.1670574 0.9890872
vt 0.1678997 0.9918902
vt 0.1663744 0.9918902
vt 0.1667491 0.9852583
vt 0.1670574 0.9890872
vt 0.1655221 0.9890872
vt 0.7075984 0.0158643
vt 0.1667491 0.9852583
vt 0.7075984 0.6969562
vt 0.7075984 0.6931518
vt 0.7084427 0.6980075
vt 0.7084427 0.0050342
vt 0.7075984 0.0083116
vt 0.7075984 0.0033364
vt 0.6850984 0.6936720
vt 0.6850984 0.6926582
vt 0.6859427 0.6959241
vt 0.1655221 0.0109149
vt 0.1670574 0.0109149
vt 0.1667491 0.0147438
vt 0.1663745 0.0081119
vt 0.1678997 0.0081119
vt 0.1670574 0.0109149
vt 0.6850984 0.6926582
vt 0.6850984 0.6898884
vt 0.6859427 0.6931214
vt 0.7524903 0.0183513
vt 0.7525979 0.0000000
vt 0.7524903 0.0183513
vt 0.7524904 0.0183297
vt 0.7532548 0.0183297
vt 0.7524904 0.4411193
vt 0.7524903 0.4410977
vt 0.7532547 0.4410977
vt 0.7524904 0.4411193
vt 0.7525183 0.4510315
vt 0.6527034 0.7058474
vt 0.6526510 0.7115093
vt 0.6550046 0.7185020
vt 0.7525183 0.0084175
vt 0.6549977 0.7115093
vt 0.7264457 0.0265552
vt 0.7264476 0.0265331
vt 0.7274098 0.0314836
vt 0.7274098 0.4542731
vt 0.7264476 0.4592236
vt 0.7264457 0.4592015
vt 0.6526326 0.7193956
vt 0.6410151 0.7058474
vt 0.6526256 0.7128758
vt 0.7484766 0.4514274
vt 0.7484419 0.4615938
vt 0.7484765 0.4514495
vt 0.6409615 0.7128758
vt 0.7484766 0.0187811
vt 0.7483431 0.4702084
vt 0.7484419 0.0086147
vt 0.7484765 0.0187590
f 1/1 2/2 3/3
f 1/1 485/485 2/2
f 2/2 272/272 3/3
f 2/2 626/626 272/272
f 4/4 5/5 6/6
f 501/501 4/4 6/6
f 493/493 494/494 6/6
f 493/493 6/6 506/506
f 508/508 506/506 6/6
f 509/509 508/508 6/6
f 494/494 493/493 274/274
f 493/493 638/638 274/274
f 273/273 274/274 275/275
f 274/274 638/638 643/643
f 274/274 643/643 646/646
f 274/274 646/646 647/647
f 274/274 647/647 275/275
f 500/500 499/499 273/273
f 500/500 273/273 642/642
f 644/644 642/642 273/273
f 645/645 644/644 273/273
f 499/499 500/500 501/501
f 500/500 502/502 501/501
f 501/501 502/502 507/507
f 501/501 507/507 510/510
f 501/501 511/511 512/512
f 7/7 8/8 9/9
f 7/7 516/516 8/8
f 8/8 276/276 9/9
f 8/8 651/651 276/276
f 10/10 11/11 12/12
f 10/10 517/517 11/11
f 11/11 277/277 12/12
f 11/11 652/652 277/277
f 13/13 14/14 15/15
f 13/13 518/518 14/14
f 14/14 278/278 15/15
f 14/14 653/653 278/278
f 16/16 17/17 18/18
f 16/16 519/519 17/17
f 17/17 279/279 18/18
f 17/17 654/654 279/279
f 19/19 20/20 21/21
f 22/22 23/23 24/24
f 25/25 26/26 27/27
f 25/25 46/46 26/26
f 31/31 25/25 27/27
f 46/46 29/29 26/26
f 46/46 30/30 29/29
f 28/28 29/29 30/30
f 28/28 58/58 29/29
f 53/53 58/58 28/28
f 53/53 54/54 58/58
f 53/53 42/42 54/54
f 53/53 40/40 42/42
f 40/40 41/41 42/42
f 40/40 55/55 41/41
f 55/55 56/56 41/41
f 55/55 529/529 56/56
f 31/31 27/27 47/47
f 31/31 32/32 33/33
f 31/31 47/47 32/32
f 33/33 32/32 44/44
f 33/33 44/44 50/50
f 43/43 44/44 45/45
f 43/43 50/50 44/44
f 43/43 57/57 51/51
f 43/43 45/45 57/57
f 51/51 57/57 52/52
f 51/51 52/52 34/34
f 34/34 52/52 35/35
f 34/34 35/35 36/36
f 36/36 35/35 48/48
f 36/36 48/48 49/49
f 37/37 38/38 39/39
f 59/59 60/60 61/61
f 318/318 59/59 319/319
f 59/59 530/530 60/60
f 318/318 530/530 59/59
f 62/62 63/63 64/64
f 320/320 62/62 321/321
f 62/62 531/531 63/63
f 320/320 531/531 62/62
f 65/65 66/66 67/67
f 322/322 65/65 323/323
f 65/65 532/532 66/66
f 322/322 532/532 65/65
f 68/68 69/69 70/70
f 324/324 68/68 325/325
f 71/71 72/72 73/73
f 326/326 71/71 327/327
f 74/74 75/75 76/76
f 328/328 74/74 329/329
f 74/74 539/539 75/75
f 328/328 539/539 74/74
f 77/77 78/78 79/79
f 330/330 77/77 331/331
f 77/77 540/540 78/78
f 330/330 540/540 77/77
f 80/80 81/81 82/82
f 332/332 80/80 333/333
f 83/83 84/84 85/85
f 334/334 83/83 335/335
f 86/86 87/87 88/88
f 89/89 90/90 91/91
f 92/92 93/93 94/94
f 95/95 96/96 97/97
f 95/95 345/345 346/346
f 95/95 556/556 96/96
f 95/95 97/97 345/345
f 98/98 99/99 100/100
f 98/98 557/557 99/99
f 101/101 102/102 103/103
f 104/104 105/105 106/106
f 107/107 108/108 109/109
f 110/110 111/111 112/112
f 110/110 566/566 111/111
f 113/113 114/114 115/115
f 113/113 567/567 114/114
f 116/116 117/117 118/118
f 119/119 120/120 121/121
f 122/122 123/123 124/124
f 125/125 126/126 127/127
f 128/128 129/129 130/130
f 131/131 132/132 133/133
f 134/134 135/135 136/136
f 134/134 586/586 135/135
f 137/137 138/138 139/139
f 137/137 587/587 138/138
f 140/140 141/141 142/142
f 140/140 588/588 141/141
f 143/143 144/144 145/145
f 146/146 147/147 148/148
f 149/149 150/150 151/151
f 149/149 595/595 150/150
f 152/152 153/153 154/154
f 152/152 596/596 153/153
f 155/155 156/156 157/157
f 155/155 597/597 156/156
f 158/158 159/159 160/160
f 158/158 598/598 159/159
f 161/161 162/162 163/163
f 161/161 599/599 162/162
f 164/164 165/165 165/165
f 495/495 164/164 164/164
f 164/164 164/164 165/165
f 633/633 164/164 164/164
f 165/165 177/177 177/177
f 165/165 165/165 177/177
f 606/606 165/165 177/177
f 177/177 218/218 218/218
f 177/177 177/177 218/218
f 218/218 218/218 218/218
f 268/268 218/218 268/268
f 218/218 218/218 218/218
f 268/268 218/218 218/218
f 478/478 268/268 268/268
f 625/625 268/268 268/268
f 166/166 167/167 168/168
f 166/166 600/600 167/167
f 169/169 170/170 171/171
f 169/169 601/601 170/170
f 172/172 173/173 174/174
f 172/172 602/602 173/173
f 175/175 176/176 176/176
f 492/492 175/175 175/175
f 175/175 175/175 176/176
f 634/634 175/175 175/175
f 176/176 185/185 185/185
f 176/176 189/189 185/185
f 176/176 176/176 185/185
f 185/185 228/228 228/228
f 185/185 185/185 228/228
f 228/228 228/228 228/228
f 228/228 269/269 228/228
f 228/228 228/228 228/228
f 228/228 269/269 269/269
f 269/269 270/270 269/269
f 178/178 179/179 180/180
f 183/183 184/184 178/178
f 178/178 184/184 179/179
f 610/610 180/180 179/179
f 202/202 610/610 203/203
f 202/202 203/203 200/200
f 199/199 202/202 200/200
f 199/199 200/200 201/201
f 207/207 199/199 201/201
f 207/207 201/201 191/191
f 190/190 207/207 191/191
f 190/190 191/191 192/192
f 190/190 425/425 426/426
f 190/190 192/192 425/425
f 426/426 425/425 438/438
f 426/426 438/438 431/431
f 431/431 438/438 432/432
f 431/431 432/432 433/433
f 433/433 432/432 435/435
f 434/434 435/435 427/427
f 427/427 416/416 418/418
f 416/416 417/417 418/418
f 416/416 722/722 417/417
f 722/722 723/723 724/724
f 723/723 428/428 430/430
f 428/428 429/429 430/430
f 428/428 439/439 429/429
f 439/439 437/437 429/429
f 439/439 436/436 437/437
f 436/436 204/204 437/437
f 436/436 611/611 204/204
f 204/204 205/205 206/206
f 204/204 611/611 205/205
f 206/206 205/205 208/208
f 206/206 208/208 196/196
f 196/196 208/208 197/197
f 196/196 197/197 198/198
f 181/181 197/197 182/182
f 181/181 182/182 183/183
f 186/186 187/187 188/188
f 187/187 229/229 188/188
f 187/187 618/618 229/229
f 193/193 194/194 195/195
f 209/209 210/210 211/211
f 209/209 612/612 210/210
f 212/212 213/213 214/214
f 212/212 613/613 213/213
f 215/215 216/216 217/217
f 215/215 614/614 216/216
f 219/219 220/220 221/221
f 219/219 615/615 220/220
f 222/222 223/223 224/224
f 222/222 616/616 223/223
f 225/225 226/226 227/227
f 225/225 617/617 226/226
f 230/230 231/231 232/232
f 230/230 619/619 231/231
f 233/233 234/234 235/235
f 233/233 620/620 234/234
f 236/236 237/237 238/238
f 236/236 621/621 237/237
f 239/239 240/240 241/241
f 239/239 622/622 240/240
f 242/242 243/243 244/244
f 242/242 623/623 243/243
f 245/245 246/246 247/247
f 245/245 624/624 246/246
f 248/248 249/249 250/250
f 256/256 261/261 248/248
f 248/248 261/261 249/249
f 249/249 473/473 474/474
f 250/250 249/249 265/265
f 249/249 261/261 473/473
f 265/265 249/249 474/474
f 250/250 265/265 266/266
f 265/265 474/474 483/483
f 266/266 265/265 267/267
f 267/267 265/265 483/483
f 266/266 267/267 262/262
f 267/267 483/483 481/481
f 262/262 267/267 263/263
f 263/263 267/267 481/481
f 262/262 263/263 264/264
f 271/271 263/263 255/255
f 263/263 481/481 482/482
f 477/477 263/263 482/482
f 271/271 264/264 263/263
f 477/477 255/255 263/263
f 254/254 271/271 255/255
f 254/254 255/255 252/252
f 476/476 255/255 477/477
f 476/476 252/252 255/255
f 251/251 254/254 252/252
f 251/251 252/252 253/253
f 475/475 252/252 476/476
f 475/475 253/253 252/252
f 259/259 251/251 253/253
f 259/259 253/253 260/260
f 479/479 253/253 475/475
f 479/479 260/260 253/253
f 484/484 259/259 260/260
f 484/484 260/260 479/479
f 261/261 480/480 473/473
f 256/256 258/258 261/261
f 261/261 258/258 480/480
f 480/480 258/258 257/257
f 256/256 257/257 258/258
f 280/280 281/281 282/282
f 283/283 284/284 285/285
f 286/286 287/287 288/288
f 293/293 307/307 286/286
f 286/286 307/307 287/287
f 288/288 287/287 289/289
f 288/288 289/289 291/291
f 289/289 290/290 291/291
f 289/289 317/317 290/290
f 317/317 312/312 290/290
f 317/317 666/666 312/312
f 312/312 313/313 301/301
f 312/312 666/666 313/313
f 301/301 313/313 302/302
f 301/301 302/302 303/303
f 303/303 302/302 314/314
f 303/303 314/314 315/315
f 293/293 661/661 307/307
f 292/292 293/293 294/294
f 292/292 661/661 293/293
f 305/305 292/292 294/294
f 305/305 294/294 306/306
f 304/304 305/305 306/306
f 304/304 665/665 305/305
f 316/316 304/304 311/311
f 316/316 665/665 304/304
f 310/310 316/316 311/311
f 310/310 311/311 296/296
f 295/295 310/310 296/296
f 295/295 296/296 297/297
f 308/308 295/295 297/297
f 308/308 297/297 309/309
f 298/298 299/299 300/300
f 336/336 337/337 338/338
f 339/339 340/340 341/341
f 342/342 343/343 344/344
f 347/347 348/348 349/349
f 347/347 680/680 348/348
f 350/350 351/351 352/352
f 353/353 354/354 355/355
f 353/353 561/561 354/354
f 354/354 561/561 562/562
f 356/356 357/357 358/358
f 359/359 360/360 361/361
f 359/359 687/687 360/360
f 362/362 363/363 364/364
f 362/362 688/688 363/363
f 365/365 366/366 367/367
f 368/368 369/369 370/370
f 371/371 372/372 373/373
f 374/374 375/375 376/376
f 377/377 378/378 379/379
f 380/380 381/381 382/382
f 383/383 384/384 385/385
f 383/383 707/707 384/384
f 386/386 387/387 388/388
f 386/386 708/708 387/387
f 389/389 390/390 391/391
f 392/392 393/393 394/394
f 395/395 396/396 397/397
f 395/395 715/715 396/396
f 398/398 399/399 400/400
f 398/398 716/716 399/399
f 401/401 402/402 403/403
f 401/401 717/717 402/402
f 404/404 405/405 406/406
f 404/404 718/718 405/405
f 407/407 408/408 409/409
f 407/407 719/719 408/408
f 410/410 411/411 412/412
f 410/410 720/720 411/411
f 413/413 414/414 415/415
f 413/413 721/721 414/414
f 419/419 420/420 421/421
f 422/422 423/423 424/424
f 440/440 441/441 442/442
f 440/440 728/728 441/441
f 443/443 444/444 445/445
f 443/443 729/729 444/444
f 446/446 447/447 448/448
f 446/446 730/730 447/447
f 449/449 450/450 451/451
f 449/449 731/731 450/450
f 452/452 453/453 454/454
f 452/452 732/732 453/453
f 455/455 456/456 457/457
f 455/455 733/733 456/456
f 458/458 459/459 460/460
f 458/458 734/734 459/459
f 461/461 462/462 463/463
f 461/461 735/735 462/462
f 464/464 465/465 466/466
f 464/464 736/736 465/465
f 467/467 468/468 469/469
f 467/467 737/737 468/468
f 470/470 471/471 472/472
f 470/470 738/738 471/471
f 486/486 487/487 488/488
f 489/489 490/490 491/491
f 496/496 497/497 498/498
f 503/503 504/504 505/505
f 513/513 514/514 515/515
f 520/520 521/521 522/522
f 523/523 524/524 525/525
f 526/526 527/527 528/528
f 533/533 534/534 535/535
f 667/667 534/534 533/533
f 536/536 537/537 538/538
f 668/668 537/537 536/536
f 541/541 542/542 543/543
f 669/669 542/542 541/541
f 544/544 545/545 546/546
f 670/670 545/545 544/544
f 547/547 548/548 549/549
f 550/550 551/551 552/552
f 553/553 554/554 555/555
f 558/558 559/559 560/560
f 563/563 564/564 565/565
f 568/568 569/569 570/570
f 571/571 572/572 573/573
f 574/574 575/575 576/576
f 577/577 578/578 579/579
f 580/580 581/581 582/582
f 583/583 584/584 585/585
f 589/589 590/590 591/591
f 592/592 593/593 594/594
f 603/603 604/604 605/605
f 607/607 608/608 609/609
f 627/627 628/628 629/629
f 630/630 631/631 632/632
f 635/635 636/636 637/637
f 639/639 640/640 641/641
f 648/648 649/649 650/650
f 655/655 656/656 657/657
f 658/658 659/659 660/660
f 662/662 663/663 664/664
f 671/671 672/672 673/673
f 674/674 675/675 676/676
f 677/677 678/678 679/679
f 681/681 682/682 683/683
f 684/684 685/685 686/686
f 689/689 690/690 691/691
f 692/692 693/693 694/694
f 695/695 696/696 697/697
f 698/698 699/699 700/700
f 701/701 702/702 703/703
f 704/704 705/705 706/706
f 709/709 710/710 711/711
f 712/712 713/713 714/714
f 725/725 726/726 727/727
o plane.003
usemtl transparent-2
v 0.1822510 0.0271954 0.1277473
v -0.1822508 0.0271954 -0.1277473
v -0.1822508 0.0271954 0.1277473
v 0.1822510 0.0271954 -0.1277473
v -0.1822508 0.0271954 -0.1303100
v 0.1822510 0.0271954 -0.1303100
v -0.1822508 0.0271954 -0.1312583
v 0.1822510 0.0271954 -0.1312583
v -0.1822508 0.0136774 -0.1312583
v -0.1822508 0.0271954 -0.1312583
v 0.1822510 0.0271954 -0.1312583
v 0.1822510 0.0136774 -0.1312583
v 0.1822510 0.0001594 0.1277473
v -0.1822508 0.0001594 0.1277473
v -0.1822508 0.0001594 -0.1277473
v 0.1822510 0.0001594 -0.1277473
v -0.1822508 0.0001594 -0.1303100
v 0.1822510 0.0001594 -0.1303100
v -0.1822508 0.0001594 -0.1312583
v 0.1822510 0.0001594 -0.1312583
v -0.1822508 0.0001594 -0.1312583
v 0.1822510 0.0001594 -0.1312583
vt 1.0000000 0.0000000
vt 0.0000000 1.0000000
vt 0.0000000 0.0000000
vt 1.0000000 1.0000000
vt 0.0000000 1.0000000
vt 1.0000000 1.0000000
vt 0.0000000 1.0000000
vt 1.0000000 1.0000000
vt 0.0000000 1.0000000
vt 0.0000000 1.0000000
vt 1.0000000 1.0000000
vt 1.0000000 1.0000000
vt 1.0000000 0.0000000
vt 0.0000000 0.0000000
vt 0.0000000 1.0000000
vt 1.0000000 1.0000000
vt 0.0000000 1.0000000
vt 1.0000000 1.0000000
vt 0.0000000 1.0000000
vt 1.0000000 1.0000000
vt 0.0000000 1.0000000
vt 1.0000000 1.0000000
f 739/739 740/740 741/741
f 739/739 742/742 740/740
f 742/742 743/743 740/740
f 742/742 744/744 743/743
f 744/744 745/745 743/743
f 744/744 749/749 745/745
f 746/746 747/747 748/748
f 746/746 750/750 747/747
f 758/758 759/759 747/747
f 758/758 747/747 750/750
f 751/751 752/752 753/753
f 751/751 753/753 754/754
f 754/754 753/753 755/755
f 754/754 755/755 756/756
f 756/756 755/755 757/757
f 756/756 757/757 760/760
