mtllib water-cooler.mtl
o cooler.001
usemtl cooler-11
v -0.6069071 0.2427076 -0.4714661
v -0.6175057 0.2427076 -0.4820647
v -0.6250000 0.2352133 -0.4714661
v -0.6175057 0.2352133 -0.4639718
v -0.6175057 0.2427076 -0.5419981
v -0.6069071 0.2427076 -0.5525967
v -0.6175057 0.2352133 -0.5600911
v -0.6250000 0.2352133 -0.5525967
v -0.5363751 0.2427076 -0.5419981
v -0.5288807 0.2352133 -0.5525967
v -0.5363751 0.2352133 -0.5600911
v -0.5469737 0.2427076 -0.5525967
v -0.5288807 0.2352133 -0.4714661
v -0.5363751 0.2427076 -0.4820647
v -0.5469737 0.2427076 -0.4714661
v -0.5363751 0.2352133 -0.4639718
v -0.6175057 0.2170784 -0.4639718
v -0.6175057 0.2352133 -0.4639718
v -0.6250000 0.2352133 -0.4714661
v -0.6250000 0.2170783 -0.4714661
v -0.6175057 0.2427076 -0.4820647
v -0.6175057 0.2427076 -0.5419981
v -0.6250000 0.2352133 -0.5525967
v -0.6175057 0.1033143 -0.5600911
v -0.6175057 0.0000001 -0.5600911
v -0.6250000 0.0000001 -0.5525968
v -0.6250000 0.1033143 -0.5525968
v -0.5469737 0.2427076 -0.5525967
v -0.5363751 0.2352133 -0.5600911
v -0.6175057 0.2352133 -0.5600911
v -0.6069071 0.2427076 -0.5525967
v -0.5288807 0.1033143 -0.5525968
v -0.5288807 0.0000001 -0.5525968
v -0.5363751 0.0000001 -0.5600911
v -0.5363751 0.1033143 -0.5600911
v -0.5288807 0.2352133 -0.4714661
v -0.5288807 0.2352133 -0.5525967
v -0.5363751 0.2427076 -0.5419981
v -0.5363751 0.2427076 -0.4820647
v -0.5288807 0.0000000 -0.4714662
v -0.5288807 0.1033143 -0.4714662
v -0.5363751 0.1033143 -0.4639718
v -0.5363751 0.0000000 -0.4639718
v -0.5363751 0.2352133 -0.4639718
v -0.5469737 0.2427076 -0.4714661
v -0.6069071 0.2427076 -0.4714661
v -0.6175057 0.2352133 -0.4639718
v -0.5488922 0.2427076 -0.4921003
v -0.5488922 0.2498503 -0.4921003
v -0.5570092 0.2498503 -0.4839832
v -0.5570092 0.2427076 -0.4839832
v -0.5570092 0.2498503 -0.5400797
v -0.5570092 0.2427076 -0.5400797
v -0.5968715 0.2427076 -0.5400797
v -0.5968715 0.2498503 -0.5400797
v -0.5968715 0.2498503 -0.4839832
v -0.5968715 0.2427076 -0.4839832
v -0.5968715 0.2427076 -0.4839832
v -0.5968715 0.2498503 -0.4839832
v -0.6049886 0.2498503 -0.4921003
v -0.6049886 0.2427076 -0.4921003
v -0.5288807 0.0000001 -0.5525968
v -0.5288807 0.0000000 -0.4714662
v -0.5363751 0.0000000 -0.4639718
v -0.5769404 0.0000001 -0.5120315
v -0.6250000 0.2170784 -0.5525968
v -0.5363751 0.2170783 -0.4639718
v -0.6175057 0.2170784 -0.4639718
v -0.5488922 0.2498503 -0.5319626
v -0.5488922 0.2427076 -0.5319626
v -0.6049886 0.2498503 -0.5319626
v -0.6049886 0.2427076 -0.5319626
v -0.5488922 0.2498503 -0.5319626
v -0.5488922 0.2498503 -0.4921003
v -0.5488922 0.2427076 -0.4921003
v -0.5488922 0.2427076 -0.5319626
v -0.5968715 0.2498503 -0.5400797
v -0.5968715 0.2427076 -0.5400797
v -0.5363751 0.2170784 -0.5600911
v -0.6175057 0.2170783 -0.5600911
v -0.5288807 0.2170784 -0.4714661
v -0.5288807 0.2170783 -0.5525968
v -0.5968715 0.2427076 -0.4839832
v -0.6049886 0.2427076 -0.4921003
v -0.6049886 0.2427076 -0.5319626
v -0.5968715 0.2427076 -0.5400797
v -0.5570092 0.2427076 -0.5400797
v -0.5488922 0.2427076 -0.5319626
v -0.5488922 0.2427076 -0.4921003
v -0.5570092 0.2427076 -0.4839832
v -0.5514505 0.2498503 -0.4931600
v -0.5514505 0.2498503 -0.5309029
v -0.5769404 0.2498503 -0.5120314
v -0.5580689 0.2498503 -0.4865415
v -0.6024303 0.2498503 -0.4931600
v -0.5958118 0.2498503 -0.4865415
v -0.5580689 0.2498503 -0.5375213
v -0.5958118 0.2498503 -0.5375213
v -0.6024303 0.2498503 -0.5309029
v -0.5968715 0.2498503 -0.4839832
v -0.6049886 0.2498503 -0.4921003
v -0.5968715 0.2498503 -0.5400797
v -0.6049886 0.2498503 -0.5319626
v -0.5488922 0.2498503 -0.5319626
v -0.5570092 0.2498503 -0.5400797
v -0.5488922 0.2498503 -0.4921003
v -0.5570092 0.2498503 -0.4839832
v -0.5363751 0.1124563 -0.5600911
v -0.6175057 0.1033143 -0.5600911
v -0.6175057 0.1124563 -0.5600911
v -0.5363751 0.1124563 -0.4639718
v -0.6175057 0.1124563 -0.4639718
v -0.6175057 0.1033143 -0.4639718
v -0.6250000 0.1124563 -0.4714662
v -0.6250000 0.1124563 -0.5525968
v -0.6250000 0.1033143 -0.4714662
v -0.5288807 0.1124563 -0.4714662
v -0.5288807 0.2170784 -0.4714661
v -0.5288807 0.2170783 -0.5525968
v -0.5288807 0.1124563 -0.5525968
v -0.6175057 0.2170783 -0.5600911
v -0.6175057 0.1124563 -0.5600911
v -0.6175057 0.1033143 -0.4639718
v -0.6175057 0.1124563 -0.4639718
v -0.6175057 0.2352133 -0.5600911
v -0.5288807 0.2352133 -0.5525967
v -0.5288807 0.2352133 -0.4714661
v -0.5288807 0.2139447 -0.5487193
v -0.5288807 0.2139447 -0.4753436
v -0.5665693 0.2139447 -0.4753436
v -0.5665693 0.2139447 -0.5487193
v -0.5288807 0.2139447 -0.5487193
v -0.5288807 0.1155900 -0.5487193
v -0.5288807 0.1124563 -0.5525968
v -0.5288807 0.2139447 -0.4753436
v -0.5288807 0.1124563 -0.4714662
v -0.5288807 0.1155900 -0.4753436
v -0.5665693 0.2139447 -0.5487193
v -0.5665693 0.2139447 -0.4753436
v -0.5665693 0.1155900 -0.4753436
v -0.5665693 0.1155900 -0.5487193
v -0.5288807 0.2139447 -0.4753436
v -0.5288807 0.1155900 -0.4753436
v -0.5665693 0.1155900 -0.4753436
v -0.5665693 0.2139447 -0.4753436
v -0.5288807 0.1155900 -0.5487193
v -0.5288807 0.2139447 -0.5487193
v -0.5665693 0.2139447 -0.5487193
v -0.5665693 0.1155900 -0.5487193
v -0.5595703 0.1742591 -0.4984971
v -0.5595703 0.1724478 -0.4992126
v -0.5700792 0.1724478 -0.5027335
v -0.5700792 0.1767829 -0.5010209
v -0.5595703 0.1749747 -0.4966858
v -0.5595703 0.1742591 -0.4948746
v -0.5595703 0.1724478 -0.4941590
v -0.5595703 0.1724478 -0.4966858
v -0.5595703 0.1724478 -0.4941590
v -0.5595703 0.1742591 -0.4948746
v -0.5700792 0.1767829 -0.4923508
v -0.5700792 0.1724478 -0.4906382
v -0.5595703 0.1699210 -0.4966858
v -0.5595703 0.1706366 -0.4948746
v -0.5700792 0.1681128 -0.4923508
v -0.5700792 0.1664002 -0.4966858
v -0.5595703 0.1742591 -0.4948746
v -0.5595703 0.1749747 -0.4966858
v -0.5700792 0.1784955 -0.4966858
v -0.5700792 0.1767829 -0.4923508
v -0.5595703 0.1742591 -0.4984971
v -0.5700792 0.1767829 -0.5010209
v -0.5595703 0.1706366 -0.4984971
v -0.5700792 0.1681128 -0.5010209
v -0.5595703 0.1742591 -0.4984971
v -0.5595703 0.1724478 -0.4992126
v -0.5595703 0.1699210 -0.4966858
v -0.5595703 0.1706366 -0.4984971
v -0.5595703 0.1706366 -0.4948746
v -0.5700792 0.1681128 -0.4923508
v -0.5595703 0.1706366 -0.4948746
v -0.5595703 0.1706366 -0.4984971
v -0.5700792 0.1681128 -0.5010209
v -0.5578392 0.1680823 -0.4979686
v -0.5578392 0.1647837 -0.4979686
v -0.5583706 0.1647837 -0.4966857
v -0.5583706 0.1680823 -0.4966857
v -0.5539927 0.1761298 -0.4992494
v -0.5534695 0.1744793 -0.4997726
v -0.5565564 0.1744793 -0.5010513
v -0.5565564 0.1761298 -0.5003113
v -0.5552559 0.1768134 -0.4979862
v -0.5539927 0.1761298 -0.4992494
v -0.5565564 0.1761298 -0.5003113
v -0.5565564 0.1768134 -0.4985249
v -0.5529308 0.1761298 -0.4966857
v -0.5521908 0.1744793 -0.4966857
v -0.5534695 0.1744793 -0.4997726
v -0.5539927 0.1761298 -0.4992494
v -0.5529308 0.1761298 -0.4966857
v -0.5547172 0.1768134 -0.4966857
v -0.5539927 0.1761298 -0.4941221
v -0.5534695 0.1744793 -0.4935988
v -0.5539927 0.1761298 -0.4941221
v -0.5552559 0.1768134 -0.4953852
v -0.5534695 0.1744793 -0.4935988
v -0.5539927 0.1761298 -0.4941221
v -0.5565564 0.1761298 -0.4930601
v -0.5565564 0.1744793 -0.4923202
v -0.5565564 0.1768134 -0.4948466
v -0.5565564 0.1761298 -0.4930601
v -0.5591200 0.1761298 -0.4941221
v -0.5596432 0.1744793 -0.4935988
v -0.5578568 0.1768134 -0.4953852
v -0.5591200 0.1761298 -0.4941221
v -0.5596432 0.1744793 -0.4935988
v -0.5591200 0.1761298 -0.4941221
v -0.5601819 0.1761298 -0.4966857
v -0.5609219 0.1744793 -0.4966857
v -0.5583955 0.1768134 -0.4966857
v -0.5601819 0.1761298 -0.4966857
v -0.5591200 0.1761298 -0.4992494
v -0.5596432 0.1744793 -0.4997726
v -0.5578568 0.1768134 -0.4979862
v -0.5591200 0.1761298 -0.4992494
v -0.5596432 0.1744793 -0.4997726
v -0.5591200 0.1761298 -0.4992494
v -0.5534695 0.1680823 -0.4997726
v -0.5565564 0.1680823 -0.5010513
v -0.5596432 0.1680823 -0.4997726
v -0.5521908 0.1680823 -0.4966857
v -0.5534695 0.1680823 -0.4997726
v -0.5534695 0.1680823 -0.4935988
v -0.5534695 0.1680823 -0.4935988
v -0.5565564 0.1680823 -0.4923202
v -0.5596432 0.1680823 -0.4935988
v -0.5596432 0.1680823 -0.4935988
v -0.5609219 0.1680823 -0.4966857
v -0.5596432 0.1680823 -0.4997726
v -0.5534695 0.1680823 -0.4997726
v -0.5552735 0.1680823 -0.4979686
v -0.5565564 0.1680823 -0.4984999
v -0.5565564 0.1680823 -0.5010513
v -0.5521908 0.1680823 -0.4966857
v -0.5547421 0.1680823 -0.4966857
v -0.5534695 0.1680823 -0.4935988
v -0.5552735 0.1680823 -0.4954028
v -0.5565564 0.1680823 -0.4923202
v -0.5565564 0.1680823 -0.4948715
v -0.5596432 0.1680823 -0.4935988
v -0.5578392 0.1680823 -0.4954028
v -0.5583706 0.1680823 -0.4966857
v -0.5609219 0.1680823 -0.4966857
v -0.5578392 0.1680823 -0.4979686
v -0.5596432 0.1680823 -0.4997726
v -0.5532515 0.1848243 -0.4956384
v -0.5532515 0.1848243 -0.4977328
v -0.5598610 0.1848243 -0.4977328
v -0.5598610 0.1848243 -0.4956384
v -0.5565564 0.1647837 -0.4948715
v -0.5565564 0.1680823 -0.4948715
v -0.5578392 0.1680823 -0.4954028
v -0.5578392 0.1647837 -0.4954028
v -0.5547421 0.1647837 -0.4966857
v -0.5547421 0.1680823 -0.4966857
v -0.5552735 0.1680823 -0.4954028
v -0.5552735 0.1647837 -0.4954028
v -0.5552735 0.1680823 -0.4979686
v -0.5552735 0.1647837 -0.4979686
v -0.5565564 0.1647837 -0.4984999
v -0.5565564 0.1680823 -0.4984999
v -0.5578392 0.1647837 -0.4979686
v -0.5578392 0.1680823 -0.4979686
v -0.5578392 0.1647837 -0.4954028
v -0.5578392 0.1680823 -0.4954028
v -0.5552735 0.1647837 -0.4954028
v -0.5552735 0.1680823 -0.4954028
v -0.5552735 0.1647837 -0.4979686
v -0.5552735 0.1680823 -0.4979686
v -0.5565564 0.1768134 -0.4966857
v -0.5565564 0.1647837 -0.4966857
v -0.5565564 0.1647837 -0.4984999
v -0.5552735 0.1647837 -0.4979686
v -0.5547421 0.1647837 -0.4966857
v -0.5552735 0.1647837 -0.4954028
v -0.5565564 0.1647837 -0.4948715
v -0.5578392 0.1647837 -0.4954028
v -0.5583706 0.1647837 -0.4966857
v -0.5578392 0.1647837 -0.4979686
v -0.5547692 0.1750264 -0.4972741
v -0.5547692 0.1750264 -0.4960971
v -0.5583433 0.1750264 -0.4960971
v -0.5583433 0.1750264 -0.4972741
v -0.5547692 0.1750264 -0.4960971
v -0.5532515 0.1848243 -0.4956384
v -0.5598610 0.1848243 -0.4956384
v -0.5583433 0.1750264 -0.4960971
v -0.5532515 0.1848243 -0.4977328
v -0.5532515 0.1848243 -0.4956384
v -0.5547692 0.1750264 -0.4960971
v -0.5547692 0.1750264 -0.4972741
v -0.5532515 0.1848243 -0.4977328
v -0.5547692 0.1750264 -0.4972741
v -0.5583433 0.1750264 -0.4972741
v -0.5598610 0.1848243 -0.4977328
v -0.5583433 0.1750264 -0.4972741
v -0.5583433 0.1750264 -0.4960971
v -0.5598610 0.1848243 -0.4956384
v -0.5598610 0.1848243 -0.4977328
v -0.5595703 0.1724478 -0.5248503
v -0.5595703 0.1742591 -0.5255658
v -0.5700792 0.1767829 -0.5230420
v -0.5700792 0.1724478 -0.5213294
v -0.5595703 0.1742591 -0.5291883
v -0.5595703 0.1749747 -0.5273771
v -0.5595703 0.1724478 -0.5273771
v -0.5595703 0.1724478 -0.5299039
v -0.5595703 0.1742591 -0.5291883
v -0.5595703 0.1724478 -0.5299039
v -0.5700792 0.1724478 -0.5334247
v -0.5700792 0.1767829 -0.5317121
v -0.5595703 0.1706366 -0.5291883
v -0.5595703 0.1699210 -0.5273771
v -0.5700792 0.1664002 -0.5273770
v -0.5700792 0.1681128 -0.5317121
v -0.5595703 0.1749747 -0.5273771
v -0.5595703 0.1742591 -0.5291883
v -0.5700792 0.1767829 -0.5317121
v -0.5700792 0.1784955 -0.5273770
v -0.5595703 0.1742591 -0.5255658
v -0.5700792 0.1767829 -0.5230420
v -0.5595703 0.1706366 -0.5255658
v -0.5700792 0.1681128 -0.5230420
v -0.5595703 0.1742591 -0.5255658
v -0.5595703 0.1724478 -0.5248503
v -0.5595703 0.1706366 -0.5255658
v -0.5595703 0.1699210 -0.5273771
v -0.5595703 0.1706366 -0.5291883
v -0.5700792 0.1681128 -0.5317121
v -0.5595703 0.1706366 -0.5291883
v -0.5595703 0.1706366 -0.5255658
v -0.5700792 0.1681128 -0.5230420
v -0.5578392 0.1647837 -0.5260943
v -0.5578392 0.1680823 -0.5260943
v -0.5583706 0.1680823 -0.5273772
v -0.5583706 0.1647837 -0.5273772
v -0.5534695 0.1744793 -0.5242903
v -0.5539927 0.1761298 -0.5248135
v -0.5565564 0.1761298 -0.5237516
v -0.5565564 0.1744793 -0.5230116
v -0.5539927 0.1761298 -0.5248135
v -0.5552559 0.1768134 -0.5260767
v -0.5565564 0.1768134 -0.5255380
v -0.5565564 0.1761298 -0.5237516
v -0.5521908 0.1744793 -0.5273772
v -0.5529308 0.1761298 -0.5273772
v -0.5539927 0.1761298 -0.5248135
v -0.5534695 0.1744793 -0.5242903
v -0.5529308 0.1761298 -0.5273772
v -0.5547172 0.1768134 -0.5273772
v -0.5534695 0.1744793 -0.5304641
v -0.5539927 0.1761298 -0.5299408
v -0.5539927 0.1761298 -0.5299408
v -0.5552559 0.1768134 -0.5286777
v -0.5539927 0.1761298 -0.5299408
v -0.5534695 0.1744793 -0.5304641
v -0.5565564 0.1744793 -0.5317427
v -0.5565564 0.1761298 -0.5310028
v -0.5565564 0.1761298 -0.5310028
v -0.5565564 0.1768134 -0.5292163
v -0.5596432 0.1744793 -0.5304641
v -0.5591200 0.1761298 -0.5299408
v -0.5591200 0.1761298 -0.5299408
v -0.5578568 0.1768134 -0.5286777
v -0.5591200 0.1761298 -0.5299408
v -0.5596432 0.1744793 -0.5304641
v -0.5609219 0.1744793 -0.5273772
v -0.5601819 0.1761298 -0.5273772
v -0.5583955 0.1768134 -0.5273772
v -0.5601819 0.1761298 -0.5273772
v -0.5596432 0.1744793 -0.5242903
v -0.5591200 0.1761298 -0.5248135
v -0.5578568 0.1768134 -0.5260767
v -0.5591200 0.1761298 -0.5248135
v -0.5591200 0.1761298 -0.5248135
v -0.5596432 0.1744793 -0.5242903
v -0.5534695 0.1680823 -0.5242903
v -0.5565564 0.1680823 -0.5230116
v -0.5596432 0.1680823 -0.5242903
v -0.5521908 0.1680823 -0.5273772
v -0.5534695 0.1680823 -0.5242903
v -0.5534695 0.1680823 -0.5304641
v -0.5534695 0.1680823 -0.5304641
v -0.5565564 0.1680823 -0.5317427
v -0.5596432 0.1680823 -0.5304641
v -0.5596432 0.1680823 -0.5304641
v -0.5609219 0.1680823 -0.5273772
v -0.5596432 0.1680823 -0.5242903
v -0.5552735 0.1680823 -0.5260943
v -0.5534695 0.1680823 -0.5242903
v -0.5565564 0.1680823 -0.5230116
v -0.5565564 0.1680823 -0.5255630
v -0.5521908 0.1680823 -0.5273772
v -0.5547421 0.1680823 -0.5273772
v -0.5534695 0.1680823 -0.5304641
v -0.5552735 0.1680823 -0.5286600
v -0.5565564 0.1680823 -0.5291914
v -0.5565564 0.1680823 -0.5317427
v -0.5578392 0.1680823 -0.5286600
v -0.5596432 0.1680823 -0.5304641
v -0.5583706 0.1680823 -0.5273772
v -0.5609219 0.1680823 -0.5273772
v -0.5578392 0.1680823 -0.5260943
v -0.5596432 0.1680823 -0.5242903
v -0.5532515 0.1848243 -0.5263301
v -0.5532515 0.1848243 -0.5284245
v -0.5598610 0.1848243 -0.5284245
v -0.5598610 0.1848243 -0.5263301
v -0.5565564 0.1680823 -0.5291914
v -0.5565564 0.1647837 -0.5291914
v -0.5578392 0.1647837 -0.5286600
v -0.5578392 0.1680823 -0.5286600
v -0.5547421 0.1680823 -0.5273772
v -0.5547421 0.1647837 -0.5273772
v -0.5552735 0.1647837 -0.5286600
v -0.5552735 0.1680823 -0.5286600
v -0.5552735 0.1647837 -0.5260943
v -0.5552735 0.1680823 -0.5260943
v -0.5565564 0.1680823 -0.5255630
v -0.5565564 0.1647837 -0.5255630
v -0.5578392 0.1680823 -0.5260943
v -0.5578392 0.1647837 -0.5260943
v -0.5578392 0.1680823 -0.5286600
v -0.5578392 0.1647837 -0.5286600
v -0.5552735 0.1680823 -0.5286600
v -0.5552735 0.1647837 -0.5286600
v -0.5552735 0.1680823 -0.5260943
v -0.5552735 0.1647837 -0.5260943
v -0.5565564 0.1768134 -0.5273772
v -0.5565564 0.1647837 -0.5273772
v -0.5552735 0.1647837 -0.5260943
v -0.5565564 0.1647837 -0.5255630
v -0.5547421 0.1647837 -0.5273772
v -0.5552735 0.1647837 -0.5286600
v -0.5565564 0.1647837 -0.5291914
v -0.5578392 0.1647837 -0.5286600
v -0.5583706 0.1647837 -0.5273772
v -0.5578392 0.1647837 -0.5260943
v -0.5547692 0.1750264 -0.5279658
v -0.5547692 0.1750264 -0.5267888
v -0.5583433 0.1750264 -0.5267888
v -0.5583433 0.1750264 -0.5279658
v -0.5532515 0.1848243 -0.5284245
v -0.5547692 0.1750264 -0.5279658
v -0.5583433 0.1750264 -0.5279658
v -0.5598610 0.1848243 -0.5284245
v -0.5532515 0.1848243 -0.5284245
v -0.5532515 0.1848243 -0.5263301
v -0.5547692 0.1750264 -0.5267888
v -0.5547692 0.1750264 -0.5279658
v -0.5547692 0.1750264 -0.5267888
v -0.5532515 0.1848243 -0.5263301
v -0.5598610 0.1848243 -0.5263301
v -0.5583433 0.1750264 -0.5267888
v -0.5583433 0.1750264 -0.5279658
v -0.5583433 0.1750264 -0.5267888
v -0.5598610 0.1848243 -0.5263301
v -0.5598610 0.1848243 -0.5284245
v -0.6175057 0.0000000 -0.4639718
v -0.6250000 0.0000000 -0.4714662
v -0.6175057 0.0000000 -0.4639718
v -0.6175057 0.0000001 -0.5600911
v -0.5288807 0.1033143 -0.5525968
v -0.5288807 0.1033143 -0.4714662
v -0.5288807 0.0000000 -0.4714662
v -0.5288807 0.0000001 -0.5525968
v -0.5244905 0.1033143 -0.5331927
v -0.5244905 0.1124563 -0.5331927
v -0.5225073 0.1124563 -0.5120315
v -0.5225073 0.1033143 -0.5120315
v -0.5244905 0.1124563 -0.4908702
v -0.5244905 0.1033143 -0.4908702
v -0.5249680 0.1155900 -0.5330790
v -0.5665693 0.1155900 -0.5337276
v -0.5665693 0.1155900 -0.5120315
v -0.5227870 0.1155900 -0.5120315
v -0.5665693 0.1155900 -0.4903353
v -0.5249680 0.1155900 -0.4909839
v -0.5249680 0.1155900 -0.5330790
v -0.5227871 0.1155900 -0.5120315
v -0.5249680 0.1155900 -0.4909839
v -0.5288807 0.1124563 -0.4714662
v -0.5288807 0.1033143 -0.4714662
v -0.5288807 0.1124563 -0.5525968
v -0.5288807 0.1033143 -0.5525968
v -0.5288807 0.1155900 -0.5487193
v -0.5288807 0.1155900 -0.4753436
v -0.5288807 0.1155900 -0.4753436
v -0.5665693 0.1155900 -0.4753436
v -0.5288807 0.1155900 -0.5487193
v -0.5665693 0.1155900 -0.5487193
v -0.5288807 0.1033143 -0.5525968
v -0.5244905 0.1033143 -0.5331927
v -0.5225073 0.1033143 -0.5120315
v -0.5244905 0.1033143 -0.4908702
v -0.5288807 0.1033143 -0.4714662
v -0.6175057 0.0000000 -0.4639718
v -0.6250000 0.0000000 -0.4714662
v -0.5363751 0.0000001 -0.5600911
v -0.6175057 0.0000001 -0.5600911
v -0.6250000 0.0000001 -0.5525968
v 0.6175056 0.2427076 0.5419982
v 0.6069070 0.2427076 0.5525968
v 0.6175056 0.2352132 0.5600911
v 0.6249999 0.2352132 0.5525968
v 0.5469736 0.2427076 0.5525968
v 0.5363750 0.2427076 0.5419982
v 0.5288806 0.2352132 0.5525968
v 0.5363750 0.2352132 0.5600911
v 0.5469736 0.2427076 0.4714662
v 0.5363750 0.2352132 0.4639719
v 0.5288806 0.2352132 0.4714662
v 0.5363750 0.2427076 0.4820648
v 0.6175056 0.2352132 0.4639719
v 0.6069070 0.2427076 0.4714662
v 0.6175056 0.2427076 0.4820648
v 0.6249999 0.2352132 0.4714662
v 0.6249999 0.2170783 0.5525968
v 0.6249999 0.2352132 0.5525968
v 0.6175056 0.2352132 0.5600911
v 0.6175056 0.2170783 0.5600911
v 0.6069070 0.2427076 0.5525968
v 0.5469736 0.2427076 0.5525968
v 0.5363750 0.2352132 0.5600911
v 0.5288806 0.1033143 0.5525968
v 0.5288806 0.0000000 0.5525968
v 0.5363750 0.0000000 0.5600911
v 0.5363750 0.1033143 0.5600911
v 0.5363750 0.2427076 0.4820648
v 0.5288806 0.2352132 0.4714662
v 0.5288806 0.2352132 0.5525968
v 0.5363750 0.2427076 0.5419982
v 0.5363750 0.1033143 0.4639719
v 0.5363750 0.0000000 0.4639719
v 0.5288806 0.0000000 0.4714662
v 0.5288806 0.1033143 0.4714662
v 0.6175056 0.2352132 0.4639719
v 0.5363750 0.2352132 0.4639719
v 0.5469736 0.2427076 0.4714662
v 0.6069070 0.2427076 0.4714662
v 0.6175056 0.0000000 0.4639719
v 0.6175056 0.1033143 0.4639719
v 0.6250000 0.1033143 0.4714662
v 0.6250000 0.0000000 0.4714662
v 0.6249999 0.2352132 0.4714662
v 0.6175056 0.2427076 0.4820648
v 0.6175056 0.2427076 0.5419982
v 0.6249999 0.2352132 0.5525968
v 0.5968714 0.2427076 0.4839833
v 0.5968714 0.2498502 0.4839833
v 0.6049885 0.2498502 0.4921004
v 0.6049885 0.2427076 0.4921004
v 0.5488920 0.2498502 0.4921004
v 0.5488920 0.2427076 0.4921004
v 0.5488920 0.2427076 0.5319627
v 0.5488920 0.2498502 0.5319627
v 0.6049885 0.2498502 0.5319627
v 0.6049885 0.2427076 0.5319627
v 0.6049885 0.2427076 0.5319627
v 0.6049885 0.2498502 0.5319627
v 0.5968714 0.2498502 0.5400798
v 0.5968714 0.2427076 0.5400798
v 0.5288806 0.0000000 0.4714662
v 0.5363750 0.0000000 0.4639719
v 0.6175056 0.0000000 0.4639719
v 0.6250000 0.0000000 0.4714662
v 0.6250000 0.0000000 0.5525968
v 0.6175056 0.0000000 0.5600911
v 0.5363750 0.0000000 0.5600911
v 0.5288806 0.0000000 0.5525968
v 0.5363750 0.2170783 0.5600911
v 0.6249999 0.2170783 0.4714662
v 0.6249999 0.2170783 0.5525968
v 0.5570091 0.2498502 0.4839833
v 0.5570091 0.2427076 0.4839833
v 0.5570091 0.2498502 0.5400798
v 0.5570091 0.2427076 0.5400798
v 0.5570091 0.2498502 0.4839833
v 0.5968714 0.2498502 0.4839833
v 0.5968714 0.2427076 0.4839833
v 0.5570091 0.2427076 0.4839833
v 0.5488920 0.2498502 0.5319627
v 0.5488920 0.2427076 0.5319627
v 0.5288806 0.2170783 0.4714662
v 0.5288806 0.2170783 0.5525968
v 0.6175056 0.2170783 0.4639719
v 0.5363750 0.2170783 0.4639719
v 0.6049885 0.2427076 0.5319627
v 0.5968714 0.2427076 0.5400798
v 0.5570091 0.2427076 0.5400798
v 0.5488920 0.2427076 0.5319627
v 0.5488920 0.2427076 0.4921004
v 0.5570091 0.2427076 0.4839833
v 0.5968714 0.2427076 0.4839833
v 0.6049885 0.2427076 0.4921004
v 0.5958117 0.2498502 0.4865417
v 0.5580688 0.2498502 0.4865417
v 0.5769403 0.2498502 0.5120315
v 0.6024302 0.2498502 0.4931601
v 0.5958117 0.2498502 0.5375214
v 0.6024302 0.2498502 0.5309030
v 0.5514504 0.2498502 0.4931601
v 0.5514504 0.2498502 0.5309030
v 0.5580688 0.2498502 0.5375214
v 0.6049885 0.2498502 0.5319627
v 0.5968714 0.2498502 0.5400798
v 0.5488920 0.2498502 0.5319627
v 0.5570091 0.2498502 0.5400798
v 0.5570091 0.2498502 0.4839833
v 0.5488920 0.2498502 0.4921004
v 0.5968714 0.2498502 0.4839833
v 0.6049885 0.2498502 0.4921004
v 0.5288806 0.1124562 0.4714662
v 0.5288806 0.1033143 0.5525968
v 0.5288806 0.1124562 0.5525968
v 0.6250000 0.1124562 0.4714662
v 0.6250000 0.1124562 0.5525968
v 0.6250000 0.1033143 0.5525968
v 0.6175056 0.1124562 0.5600911
v 0.5363750 0.1124562 0.5600911
v 0.6175056 0.1033143 0.5600911
v 0.6175056 0.1124562 0.4639719
v 0.6175056 0.2170783 0.4639719
v 0.5363750 0.2170783 0.4639719
v 0.5363750 0.1124562 0.4639719
v 0.5288806 0.2170783 0.5525968
v 0.5288806 0.1124562 0.5525968
v 0.6250000 0.1033143 0.5525968
v 0.6250000 0.1124562 0.5525968
v 0.5288806 0.2352132 0.5525968
v 0.5363750 0.2352132 0.4639719
v 0.6175056 0.2352132 0.4639719
v 0.5402524 0.2139446 0.4639719
v 0.6136280 0.2139446 0.4639719
v 0.6136280 0.2139446 0.5016605
v 0.5402524 0.2139446 0.5016605
v 0.5402524 0.2139446 0.4639719
v 0.5402524 0.1155899 0.4639719
v 0.5363750 0.1124562 0.4639719
v 0.6136280 0.2139446 0.4639719
v 0.6175056 0.1124562 0.4639719
v 0.6136280 0.1155899 0.4639719
v 0.5402524 0.2139446 0.5016605
v 0.6136280 0.2139446 0.5016605
v 0.6136280 0.1155899 0.5016605
v 0.5402524 0.1155899 0.5016605
v 0.6136280 0.2139446 0.4639719
v 0.6136280 0.1155899 0.4639719
v 0.6136280 0.1155899 0.5016605
v 0.6136280 0.2139446 0.5016605
v 0.5402524 0.1155899 0.4639719
v 0.5402524 0.2139446 0.4639719
v 0.5402524 0.2139446 0.5016605
v 0.5402524 0.1155899 0.5016605
v 0.5904746 0.1742590 0.4946615
v 0.5897591 0.1724478 0.4946615
v 0.5862382 0.1724478 0.5051704
v 0.5879508 0.1767828 0.5051704
v 0.5922859 0.1749746 0.4946615
v 0.5940971 0.1742590 0.4946615
v 0.5948127 0.1724478 0.4946615
v 0.5922859 0.1724478 0.4946615
v 0.5948127 0.1724478 0.4946615
v 0.5940971 0.1742590 0.4946615
v 0.5966210 0.1767828 0.5051704
v 0.5983335 0.1724478 0.5051704
v 0.5922859 0.1699210 0.4946615
v 0.5940971 0.1706365 0.4946615
v 0.5966210 0.1681127 0.5051704
v 0.5922858 0.1664001 0.5051704
v 0.5940971 0.1742590 0.4946615
v 0.5922859 0.1749746 0.4946615
v 0.5922858 0.1784955 0.5051704
v 0.5966210 0.1767828 0.5051704
v 0.5904746 0.1742590 0.4946615
v 0.5879508 0.1767828 0.5051704
v 0.5904746 0.1706365 0.4946615
v 0.5879508 0.1681127 0.5051704
v 0.5904746 0.1742590 0.4946615
v 0.5897591 0.1724478 0.4946615
v 0.5922859 0.1699210 0.4946615
v 0.5904746 0.1706365 0.4946615
v 0.5940971 0.1706365 0.4946615
v 0.5966210 0.1681127 0.5051704
v 0.5940971 0.1706365 0.4946615
v 0.5904746 0.1706365 0.4946615
v 0.5879508 0.1681127 0.5051704
v 0.5910032 0.1680823 0.4929304
v 0.5910032 0.1647837 0.4929304
v 0.5922860 0.1647837 0.4934618
v 0.5922860 0.1680823 0.4934618
v 0.5897224 0.1761297 0.4890839
v 0.5891991 0.1744793 0.4885606
v 0.5879205 0.1744793 0.4916476
v 0.5886604 0.1761297 0.4916476
v 0.5909855 0.1768133 0.4903470
v 0.5897224 0.1761297 0.4890839
v 0.5886604 0.1761297 0.4916476
v 0.5904468 0.1768133 0.4916476
v 0.5922860 0.1761297 0.4880219
v 0.5922860 0.1744793 0.4872820
v 0.5891991 0.1744793 0.4885606
v 0.5897224 0.1761297 0.4890839
v 0.5922860 0.1761297 0.4880219
v 0.5922860 0.1768133 0.4898083
v 0.5948496 0.1761297 0.4890839
v 0.5953729 0.1744793 0.4885606
v 0.5948496 0.1761297 0.4890839
v 0.5935865 0.1768133 0.4903470
v 0.5953729 0.1744793 0.4885606
v 0.5948496 0.1761297 0.4890839
v 0.5959116 0.1761297 0.4916476
v 0.5966515 0.1744793 0.4916476
v 0.5941251 0.1768133 0.4916476
v 0.5959116 0.1761297 0.4916476
v 0.5948496 0.1761297 0.4942112
v 0.5953729 0.1744793 0.4947344
v 0.5935865 0.1768133 0.4929480
v 0.5948496 0.1761297 0.4942112
v 0.5953729 0.1744793 0.4947344
v 0.5948496 0.1761297 0.4942112
v 0.5922860 0.1761297 0.4952731
v 0.5922860 0.1744793 0.4960130
v 0.5922860 0.1768133 0.4934867
v 0.5922860 0.1761297 0.4952731
v 0.5897224 0.1761297 0.4942112
v 0.5891991 0.1744793 0.4947344
v 0.5909855 0.1768133 0.4929480
v 0.5897224 0.1761297 0.4942112
v 0.5891991 0.1744793 0.4947344
v 0.5897224 0.1761297 0.4942112
v 0.5891991 0.1680823 0.4885606
v 0.5879205 0.1680823 0.4916476
v 0.5891991 0.1680823 0.4947344
v 0.5922860 0.1680823 0.4872820
v 0.5891991 0.1680823 0.4885606
v 0.5953729 0.1680823 0.4885606
v 0.5953729 0.1680823 0.4885606
v 0.5966515 0.1680823 0.4916476
v 0.5953729 0.1680823 0.4947344
v 0.5953729 0.1680823 0.4947344
v 0.5922860 0.1680823 0.4960130
v 0.5891991 0.1680823 0.4947344
v 0.5891991 0.1680823 0.4885606
v 0.5910032 0.1680823 0.4903647
v 0.5904718 0.1680823 0.4916476
v 0.5879205 0.1680823 0.4916476
v 0.5922860 0.1680823 0.4872820
v 0.5922860 0.1680823 0.4898333
v 0.5953729 0.1680823 0.4885606
v 0.5935689 0.1680823 0.4903647
v 0.5966515 0.1680823 0.4916476
v 0.5941002 0.1680823 0.4916476
v 0.5953729 0.1680823 0.4947344
v 0.5935689 0.1680823 0.4929304
v 0.5922860 0.1680823 0.4934618
v 0.5922860 0.1680823 0.4960130
v 0.5910032 0.1680823 0.4929304
v 0.5891991 0.1680823 0.4947344
v 0.5933333 0.1848243 0.4883427
v 0.5912389 0.1848243 0.4883427
v 0.5912389 0.1848243 0.4949522
v 0.5933333 0.1848243 0.4949522
v 0.5941002 0.1647837 0.4916476
v 0.5941002 0.1680823 0.4916476
v 0.5935689 0.1680823 0.4929304
v 0.5935689 0.1647837 0.4929304
v 0.5922860 0.1647837 0.4898333
v 0.5922860 0.1680823 0.4898333
v 0.5935689 0.1680823 0.4903647
v 0.5935689 0.1647837 0.4903647
v 0.5910032 0.1680823 0.4903647
v 0.5910032 0.1647837 0.4903647
v 0.5904718 0.1647837 0.4916476
v 0.5904718 0.1680823 0.4916476
v 0.5910032 0.1647837 0.4929304
v 0.5910032 0.1680823 0.4929304
v 0.5935689 0.1647837 0.4929304
v 0.5935689 0.1680823 0.4929304
v 0.5935689 0.1647837 0.4903647
v 0.5935689 0.1680823 0.4903647
v 0.5910032 0.1647837 0.4903647
v 0.5910032 0.1680823 0.4903647
v 0.5922860 0.1768133 0.4916476
v 0.5922860 0.1647837 0.4916476
v 0.5904718 0.1647837 0.4916476
v 0.5910032 0.1647837 0.4903647
v 0.5922860 0.1647837 0.4898333
v 0.5935689 0.1647837 0.4903647
v 0.5941002 0.1647837 0.4916476
v 0.5935689 0.1647837 0.4929304
v 0.5922860 0.1647837 0.4934618
v 0.5910032 0.1647837 0.4929304
v 0.5916977 0.1750263 0.4898603
v 0.5928746 0.1750263 0.4898603
v 0.5928746 0.1750263 0.4934345
v 0.5916977 0.1750263 0.4934345
v 0.5928746 0.1750263 0.4898603
v 0.5933333 0.1848243 0.4883427
v 0.5933333 0.1848243 0.4949522
v 0.5928746 0.1750263 0.4934345
v 0.5912389 0.1848243 0.4883427
v 0.5933333 0.1848243 0.4883427
v 0.5928746 0.1750263 0.4898603
v 0.5916977 0.1750263 0.4898603
v 0.5912389 0.1848243 0.4883427
v 0.5916977 0.1750263 0.4898603
v 0.5916977 0.1750263 0.4934345
v 0.5912389 0.1848243 0.4949522
v 0.5916977 0.1750263 0.4934345
v 0.5928746 0.1750263 0.4934345
v 0.5933333 0.1848243 0.4949522
v 0.5912389 0.1848243 0.4949522
v 0.5641214 0.1724478 0.4946615
v 0.5634059 0.1742590 0.4946615
v 0.5659298 0.1767828 0.5051704
v 0.5676423 0.1724478 0.5051704
v 0.5597834 0.1742590 0.4946615
v 0.5615946 0.1749746 0.4946615
v 0.5615946 0.1724478 0.4946615
v 0.5590678 0.1724478 0.4946615
v 0.5597834 0.1742590 0.4946615
v 0.5590678 0.1724478 0.4946615
v 0.5555470 0.1724478 0.5051704
v 0.5572596 0.1767828 0.5051704
v 0.5597834 0.1706365 0.4946615
v 0.5615946 0.1699210 0.4946615
v 0.5615947 0.1664001 0.5051704
v 0.5572596 0.1681127 0.5051704
v 0.5615946 0.1749746 0.4946615
v 0.5597834 0.1742590 0.4946615
v 0.5572596 0.1767828 0.5051704
v 0.5615947 0.1784955 0.5051704
v 0.5634059 0.1742590 0.4946615
v 0.5659298 0.1767828 0.5051704
v 0.5634059 0.1706365 0.4946615
v 0.5659298 0.1681127 0.5051704
v 0.5634059 0.1742590 0.4946615
v 0.5641214 0.1724478 0.4946615
v 0.5634059 0.1706365 0.4946615
v 0.5615946 0.1699210 0.4946615
v 0.5597834 0.1706365 0.4946615
v 0.5572596 0.1681127 0.5051704
v 0.5597834 0.1706365 0.4946615
v 0.5634059 0.1706365 0.4946615
v 0.5659298 0.1681127 0.5051704
v 0.5628774 0.1647837 0.4929304
v 0.5628774 0.1680823 0.4929304
v 0.5615945 0.1680823 0.4934618
v 0.5615945 0.1647837 0.4934618
v 0.5646814 0.1744793 0.4885606
v 0.5641582 0.1761297 0.4890839
v 0.5652201 0.1761297 0.4916476
v 0.5659601 0.1744793 0.4916476
v 0.5641582 0.1761297 0.4890839
v 0.5628950 0.1768133 0.4903470
v 0.5634337 0.1768133 0.4916476
v 0.5652201 0.1761297 0.4916476
v 0.5615945 0.1744793 0.4872820
v 0.5615945 0.1761297 0.4880219
v 0.5641582 0.1761297 0.4890839
v 0.5646814 0.1744793 0.4885606
v 0.5615945 0.1761297 0.4880219
v 0.5615945 0.1768133 0.4898083
v 0.5585076 0.1744793 0.4885606
v 0.5590309 0.1761297 0.4890839
v 0.5590309 0.1761297 0.4890839
v 0.5602940 0.1768133 0.4903470
v 0.5590309 0.1761297 0.4890839
v 0.5585076 0.1744793 0.4885606
v 0.5572290 0.1744793 0.4916476
v 0.5579689 0.1761297 0.4916476
v 0.5579689 0.1761297 0.4916476
v 0.5597554 0.1768133 0.4916476
v 0.5585076 0.1744793 0.4947344
v 0.5590309 0.1761297 0.4942112
v 0.5590309 0.1761297 0.4942112
v 0.5602940 0.1768133 0.4929480
v 0.5590309 0.1761297 0.4942112
v 0.5585076 0.1744793 0.4947344
v 0.5615945 0.1744793 0.4960130
v 0.5615945 0.1761297 0.4952731
v 0.5615945 0.1768133 0.4934866
v 0.5615945 0.1761297 0.4952731
v 0.5646814 0.1744793 0.4947344
v 0.5641582 0.1761297 0.4942112
v 0.5628950 0.1768133 0.4929480
v 0.5641582 0.1761297 0.4942112
v 0.5641582 0.1761297 0.4942112
v 0.5646814 0.1744793 0.4947344
v 0.5646814 0.1680823 0.4885606
v 0.5659601 0.1680823 0.4916476
v 0.5646814 0.1680823 0.4947344
v 0.5615945 0.1680823 0.4872820
v 0.5646814 0.1680823 0.4885606
v 0.5585076 0.1680823 0.4885606
v 0.5585076 0.1680823 0.4885606
v 0.5572290 0.1680823 0.4916476
v 0.5585076 0.1680823 0.4947344
v 0.5585076 0.1680823 0.4947344
v 0.5615945 0.1680823 0.4960130
v 0.5646814 0.1680823 0.4947344
v 0.5628774 0.1680823 0.4903647
v 0.5646814 0.1680823 0.4885606
v 0.5659601 0.1680823 0.4916476
v 0.5634088 0.1680823 0.4916476
v 0.5615945 0.1680823 0.4872820
v 0.5615945 0.1680823 0.4898333
v 0.5585076 0.1680823 0.4885606
v 0.5603117 0.1680823 0.4903647
v 0.5597803 0.1680823 0.4916476
v 0.5572290 0.1680823 0.4916476
v 0.5603117 0.1680823 0.4929304
v 0.5585076 0.1680823 0.4947344
v 0.5615945 0.1680823 0.4934618
v 0.5615945 0.1680823 0.4960130
v 0.5628774 0.1680823 0.4929304
v 0.5646814 0.1680823 0.4947344
v 0.5626416 0.1848243 0.4883427
v 0.5605472 0.1848243 0.4883427
v 0.5605472 0.1848243 0.4949522
v 0.5626416 0.1848243 0.4949522
v 0.5597803 0.1680823 0.4916476
v 0.5597803 0.1647837 0.4916476
v 0.5603117 0.1647837 0.4929304
v 0.5603117 0.1680823 0.4929304
v 0.5615945 0.1680823 0.4898333
v 0.5615945 0.1647837 0.4898333
v 0.5603117 0.1647837 0.4903647
v 0.5603117 0.1680823 0.4903647
v 0.5628774 0.1647837 0.4903647
v 0.5628774 0.1680823 0.4903647
v 0.5634088 0.1680823 0.4916476
v 0.5634088 0.1647837 0.4916476
v 0.5628774 0.1680823 0.4929304
v 0.5628774 0.1647837 0.4929304
v 0.5603117 0.1680823 0.4929304
v 0.5603117 0.1647837 0.4929304
v 0.5603117 0.1680823 0.4903647
v 0.5603117 0.1647837 0.4903647
v 0.5628774 0.1680823 0.4903647
v 0.5628774 0.1647837 0.4903647
v 0.5615945 0.1768133 0.4916476
v 0.5615945 0.1647837 0.4916476
v 0.5628774 0.1647837 0.4903647
v 0.5634088 0.1647837 0.4916476
v 0.5615945 0.1647837 0.4898333
v 0.5603117 0.1647837 0.4903647
v 0.5597803 0.1647837 0.4916476
v 0.5603117 0.1647837 0.4929304
v 0.5615945 0.1647837 0.4934618
v 0.5628774 0.1647837 0.4929304
v 0.5610059 0.1750263 0.4898603
v 0.5621829 0.1750263 0.4898603
v 0.5621829 0.1750263 0.4934345
v 0.5610059 0.1750263 0.4934345
v 0.5605472 0.1848243 0.4883427
v 0.5610059 0.1750263 0.4898603
v 0.5610059 0.1750263 0.4934345
v 0.5605472 0.1848243 0.4949522
v 0.5605472 0.1848243 0.4883427
v 0.5626416 0.1848243 0.4883427
v 0.5621829 0.1750263 0.4898603
v 0.5610059 0.1750263 0.4898603
v 0.5621829 0.1750263 0.4898603
v 0.5626416 0.1848243 0.4883427
v 0.5626416 0.1848243 0.4949522
v 0.5621829 0.1750263 0.4934345
v 0.5610059 0.1750263 0.4934345
v 0.5621829 0.1750263 0.4934345
v 0.5626416 0.1848243 0.4949522
v 0.5605472 0.1848243 0.4949522
v 0.6250000 0.0000000 0.5525968
v 0.6175056 0.0000000 0.5600911
v 0.6250000 0.0000000 0.5525968
v 0.5288806 0.0000000 0.5525968
v 0.5363750 0.1033143 0.4639719
v 0.6175056 0.1033143 0.4639719
v 0.6175056 0.0000000 0.4639719
v 0.5363750 0.0000000 0.4639719
v 0.5557790 0.1033143 0.4595816
v 0.5557790 0.1124562 0.4595816
v 0.5769403 0.1124562 0.4575984
v 0.5769403 0.1033143 0.4575984
v 0.5981015 0.1124562 0.4595816
v 0.5981015 0.1033143 0.4595816
v 0.5558928 0.1155899 0.4600592
v 0.5552442 0.1155899 0.5016605
v 0.5769403 0.1155899 0.5016605
v 0.5769403 0.1155899 0.4578782
v 0.5986364 0.1155899 0.5016605
v 0.5979878 0.1155899 0.4600592
v 0.5558928 0.1155899 0.4600592
v 0.5769403 0.1155899 0.4578782
v 0.5979878 0.1155899 0.4600592
v 0.6136280 0.1155899 0.4639719
v 0.6136280 0.1155899 0.5016605
v 0.5402524 0.1155899 0.4639719
v 0.5402524 0.1155899 0.5016605
v 0.5363750 0.1033143 0.4639719
v 0.5557790 0.1033143 0.4595816
v 0.5769403 0.1033143 0.4575984
v 0.5981015 0.1033143 0.4595816
v 0.6175056 0.1033143 0.4639719
vt 0.0508942 0.6046394
vt 0.0264987 0.6290395
vt 0.0095862 0.6046394
vt 0.0268364 0.5873858
vt 0.0264987 0.7670184
vt 0.0508942 0.7914185
vt 0.0268364 0.8086720
vt 0.0095862 0.7914185
vt 0.2132421 0.7670184
vt 0.2308300 0.7914186
vt 0.2135798 0.8086720
vt 0.1888466 0.7914185
vt 0.2308300 0.6046394
vt 0.2132421 0.6290395
vt 0.1888466 0.6046394
vt 0.2135798 0.5873858
vt 0.0095862 0.0684506
vt 0.0095862 0.0267989
vt 0.0268397 0.0279843
vt 0.0268397 0.0696359
vt 0.0512398 0.0095862
vt 0.1892187 0.0095862
vt 0.2136188 0.0279843
vt 0.2308723 0.3297396
vt 0.2308723 0.5670281
vt 0.2136188 0.5682135
vt 0.2136188 0.3309250
vt 0.4131112 0.0100561
vt 0.4365598 0.0284610
vt 0.2500447 0.0278249
vt 0.2753274 0.0095862
vt 0.4547060 0.3304504
vt 0.4547060 0.5678122
vt 0.4365598 0.5688573
vt 0.4365598 0.3314955
vt 0.8844912 0.0275339
vt 0.6977120 0.0275339
vt 0.7221122 0.0095862
vt 0.8600910 0.0095862
vt 0.4738784 0.5678122
vt 0.4738784 0.3304504
vt 0.4920246 0.3314955
vt 0.4920246 0.5688573
vt 0.4920246 0.0284610
vt 0.5154731 0.0100561
vt 0.6532569 0.0095862
vt 0.6785397 0.0278249
vt 0.9103323 0.7184702
vt 0.9267419 0.7183493
vt 0.9257547 0.7380112
vt 0.9093451 0.7381321
vt 0.9103324 0.6074196
vt 0.9267420 0.6075404
vt 0.9257547 0.6991770
vt 0.9093452 0.6990562
vt 0.9267419 0.8296478
vt 0.9103323 0.8297687
vt 0.9200684 0.5149278
vt 0.9036635 0.5149278
vt 0.9049473 0.4962406
vt 0.9213523 0.4962406
vt 0.2500447 0.7920623
vt 0.2500447 0.6052832
vt 0.2672904 0.5880297
vt 0.3606377 0.6986728
vt 0.2136188 0.0696359
vt 0.4920246 0.0701256
vt 0.6785397 0.0694895
vt 0.9093452 0.5877577
vt 0.9257548 0.5878785
vt 0.9049473 0.4044695
vt 0.9213523 0.4044695
vt 0.1578793 0.9196154
vt 0.1578793 0.8278443
vt 0.1743092 0.8278443
vt 0.1743092 0.9196154
vt 0.9036635 0.3857822
vt 0.9200684 0.3857822
vt 0.4365598 0.0701256
vt 0.2500447 0.0694895
vt 0.8844912 0.0692490
vt 0.6977120 0.0692490
vt 0.0739936 0.6334562
vt 0.0553100 0.6521434
vt 0.0553100 0.7439145
vt 0.0739936 0.7626017
vt 0.1657471 0.7626017
vt 0.1844307 0.7439145
vt 0.1844307 0.6521434
vt 0.1657471 0.6334562
vt 0.1328183 0.8489712
vt 0.1328183 0.9358631
vt 0.0741466 0.8924171
vt 0.1175842 0.8337342
vt 0.0154749 0.8489712
vt 0.0307090 0.8337342
vt 0.1175842 0.9511001
vt 0.0307090 0.9511001
vt 0.0154749 0.9358631
vt 0.0282698 0.8278444
vt 0.0095862 0.8465316
vt 0.0282698 0.9569899
vt 0.0095862 0.9383027
vt 0.1387069 0.9383028
vt 0.1200233 0.9569899
vt 0.1387070 0.8465316
vt 0.1200233 0.8278444
vt 0.4365598 0.3104920
vt 0.2500447 0.3308594
vt 0.2500447 0.3098559
vt 0.4920246 0.3104920
vt 0.6785397 0.3098559
vt 0.6785397 0.3308594
vt 0.0268397 0.3099281
vt 0.2136188 0.3099281
vt 0.0268397 0.3309250
vt 0.4738784 0.3094469
vt 0.4738784 0.0690805
vt 0.4547060 0.0690805
vt 0.4547060 0.3094469
vt 0.2308723 0.0684506
vt 0.2308723 0.3087426
vt 0.0095862 0.3297397
vt 0.0095862 0.3087426
vt 0.2308723 0.0267989
vt 0.4547060 0.0274160
vt 0.4738784 0.0274160
vt 0.9036635 0.3666099
vt 0.9036635 0.1976842
vt 0.9903912 0.1976842
vt 0.9903912 0.3666099
vt 0.7066388 0.0764573
vt 0.7066388 0.3026987
vt 0.6977120 0.3099070
vt 0.8755645 0.0764573
vt 0.8844912 0.3099070
vt 0.8755645 0.3026987
vt 0.4904031 0.5880296
vt 0.6593288 0.5880296
vt 0.6593288 0.8142711
vt 0.4904031 0.8142711
vt 0.7843564 0.5880533
vt 0.7843564 0.8140208
vt 0.6977121 0.8137253
vt 0.6977121 0.5877578
vt 0.8035287 0.8140208
vt 0.8035287 0.5880533
vt 0.8901729 0.5877578
vt 0.8901729 0.8137253
vt 0.2201985 0.9014008
vt 0.2136796 0.9012671
vt 0.2130131 0.8636966
vt 0.2286154 0.8640168
vt 0.4379286 0.9211048
vt 0.4379286 0.9279542
vt 0.4329317 0.9326325
vt 0.4296684 0.9243653
vt 0.3207015 0.8645755
vt 0.3272204 0.8644417
vt 0.3356373 0.9018258
vt 0.3200351 0.9021460
vt 0.4079403 0.8645533
vt 0.4143113 0.8644776
vt 0.4231884 0.9016923
vt 0.4079402 0.9018734
vt 0.5018774 0.9017346
vt 0.4955064 0.9016854
vt 0.4955063 0.8644856
vt 0.5107545 0.8646035
vt 0.4891354 0.9017347
vt 0.4802580 0.8646035
vt 0.4015693 0.8644776
vt 0.3926920 0.9016923
vt 0.4332502 0.9161022
vt 0.4264051 0.9160982
vt 0.4214084 0.9276259
vt 0.4214083 0.9207766
vt 0.3145046 0.8644417
vt 0.3052035 0.9018258
vt 0.4260865 0.9326286
vt 0.2074827 0.9014008
vt 0.1981815 0.8640168
vt 0.8254477 0.9357452
vt 0.8254477 0.9473205
vt 0.8209354 0.9474488
vt 0.8209354 0.9358737
vt 0.9885035 0.9305339
vt 0.9902433 0.9364514
vt 0.9791617 0.9367021
vt 0.9793001 0.9307423
vt 0.7023627 0.9396247
vt 0.6965150 0.9372373
vt 0.7034154 0.9303368
vt 0.7058631 0.9361242
vt 0.5871856 0.9307064
vt 0.5871856 0.9366139
vt 0.5763276 0.9364289
vt 0.5781680 0.9305529
vt 0.6965150 0.9469974
vt 0.7023627 0.9445757
vt 0.5962030 0.9305529
vt 0.5980434 0.9364289
vt 0.7034154 0.9538999
vt 0.7058631 0.9480771
vt 0.6981230 0.8942756
vt 0.6998630 0.8883582
vt 0.7090664 0.8885667
vt 0.7092047 0.8945264
vt 0.7108136 0.9480779
vt 0.7131745 0.9539012
vt 0.7178726 0.8882970
vt 0.7198082 0.8942017
vt 0.7143142 0.9445773
vt 0.7200749 0.9470007
vt 0.6234372 0.8942195
vt 0.6252777 0.8883014
vt 0.6342951 0.8885580
vt 0.6342951 0.8945284
vt 0.7143142 0.9396263
vt 0.7200749 0.9372405
vt 0.6433126 0.8883014
vt 0.6451530 0.8942195
vt 0.7108136 0.9361247
vt 0.7131745 0.9303381
vt 0.9685583 0.9363775
vt 0.9704939 0.9304726
vt 0.9902433 0.9589061
vt 0.9791617 0.9591569
vt 0.9685583 0.9588321
vt 0.5871856 0.9590956
vt 0.5763276 0.9589108
vt 0.5980434 0.9589108
vt 0.6981230 0.9167304
vt 0.7092047 0.9169811
vt 0.7198082 0.9166564
vt 0.6234372 0.9166671
vt 0.6342951 0.9169762
vt 0.6451530 0.9166671
vt 0.5581625 0.8872373
vt 0.5547297 0.8955266
vt 0.5498475 0.8955250
vt 0.5464146 0.8872337
vt 0.5664696 0.8955498
vt 0.5581820 0.8989812
vt 0.5664696 0.9073016
vt 0.5581820 0.9038649
vt 0.5581625 0.9156085
vt 0.5547297 0.9073173
vt 0.5464146 0.9156049
vt 0.5498475 0.9073156
vt 0.5463952 0.9038611
vt 0.5381076 0.9072925
vt 0.5463952 0.8989774
vt 0.5381075 0.8955407
vt 0.4638756 0.9384441
vt 0.4565085 0.9384441
vt 0.4565085 0.9152002
vt 0.4638756 0.9152002
vt 0.9083211 0.9474556
vt 0.9083211 0.9358767
vt 0.9127276 0.9357420
vt 0.9127276 0.9473206
vt 0.7771524 0.9495869
vt 0.7771524 0.9379941
vt 0.7816647 0.9379175
vt 0.7816647 0.9495100
vt 0.8815686 0.9357726
vt 0.8815686 0.9473515
vt 0.8769633 0.9474556
vt 0.8769633 0.9358767
vt 0.8725567 0.9473206
vt 0.8725567 0.9357420
vt 0.8164231 0.9473205
vt 0.8164231 0.9357452
vt 0.9037157 0.9473515
vt 0.9037157 0.9357726
vt 0.7726400 0.9495100
vt 0.7726400 0.9379175
vt 0.7083383 0.9421010
vt 0.3404616 0.9228545
vt 0.3380185 0.9169592
vt 0.3429008 0.9169592
vt 0.3463541 0.9204125
vt 0.3463557 0.9252963
vt 0.3429046 0.9287497
vt 0.3380223 0.9287497
vt 0.3345690 0.9252963
vt 0.3345674 0.9204125
vt 0.2404282 0.9161351
vt 0.2445681 0.9161351
vt 0.2445681 0.9287012
vt 0.2404282 0.9287012
vt 0.8965815 0.9204509
vt 0.8914535 0.8861618
vt 0.9146693 0.8861618
vt 0.9091356 0.9204509
vt 0.7373941 0.8864518
vt 0.7447613 0.8864518
vt 0.7431479 0.9206670
vt 0.7390078 0.9206670
vt 0.8377122 0.8861618
vt 0.8325841 0.9204509
vt 0.8200301 0.9204509
vt 0.8144964 0.8861618
vt 0.4891075 0.9476663
vt 0.4849675 0.9476663
vt 0.4833541 0.9136509
vt 0.4907211 0.9136509
vt 0.2769644 0.8645756
vt 0.2834832 0.8644418
vt 0.2919002 0.9018258
vt 0.2762979 0.9021460
vt 0.2633514 0.9281801
vt 0.2633514 0.9213308
vt 0.2716115 0.9245914
vt 0.2683482 0.9328585
vt 0.3709576 0.9021210
vt 0.3644387 0.9019873
vt 0.3637722 0.8644168
vt 0.3793745 0.8647370
vt 0.4453522 0.8644776
vt 0.4517232 0.8645533
vt 0.4517233 0.9018734
vt 0.4364751 0.9016923
vt 0.7850141 0.9229609
vt 0.7786431 0.9230101
vt 0.7697659 0.8858790
vt 0.7850143 0.8857610
vt 0.7913851 0.9230101
vt 0.8002623 0.8858790
vt 0.4580942 0.8644776
vt 0.4669715 0.9016923
vt 0.2680297 0.9163281
vt 0.2748748 0.9163243
vt 0.2798717 0.9210025
vt 0.2798716 0.9278518
vt 0.3582418 0.9021210
vt 0.3489407 0.8647370
vt 0.2751934 0.9328545
vt 0.2707675 0.8644418
vt 0.2614664 0.9018258
vt 0.8444823 0.9473205
vt 0.8444823 0.9357452
vt 0.8489947 0.9358737
vt 0.8489947 0.9474488
vt 0.5389771 0.9365052
vt 0.5407171 0.9305877
vt 0.5499204 0.9307960
vt 0.5500588 0.9367558
vt 0.2226938 0.9215679
vt 0.2168456 0.9239546
vt 0.2133456 0.9204535
vt 0.2157941 0.9146665
vt 0.6342951 0.9368331
vt 0.6342951 0.9309259
vt 0.6433125 0.9307725
vt 0.6451530 0.9366484
vt 0.2226924 0.9313282
vt 0.2168450 0.9289055
vt 0.6234372 0.9366484
vt 0.6252777 0.9307725
vt 0.2157910 0.9382296
vt 0.2133440 0.9324065
vt 0.9885035 0.8880781
vt 0.9902432 0.8939955
vt 0.9791617 0.8942463
vt 0.9793001 0.8882865
vt 0.2060321 0.9382296
vt 0.2083936 0.9324065
vt 0.9685583 0.8939216
vt 0.9704939 0.8880167
vt 0.1991325 0.9313282
vt 0.2048936 0.9289055
vt 0.6806655 0.8883014
vt 0.6825058 0.8942195
vt 0.6716480 0.8945284
vt 0.6716480 0.8885580
vt 0.2048943 0.9239546
vt 0.1991338 0.9215679
vt 0.6607901 0.8942195
vt 0.6626306 0.8883014
vt 0.2083952 0.9204535
vt 0.2060352 0.9146665
vt 0.5587266 0.9305263
vt 0.5606623 0.9364311
vt 0.5389771 0.9589598
vt 0.5500588 0.9592105
vt 0.5606623 0.9588858
vt 0.6342951 0.9593152
vt 0.6451530 0.9591303
vt 0.6234372 0.9591303
vt 0.9902432 0.9164503
vt 0.9791617 0.9167010
vt 0.9685583 0.9163763
vt 0.6825058 0.9166671
vt 0.6716480 0.9169762
vt 0.6607901 0.9166671
vt 0.5920676 0.8955266
vt 0.5886347 0.8872373
vt 0.6003826 0.8872337
vt 0.5969498 0.8955253
vt 0.5803276 0.8955498
vt 0.5886153 0.8989812
vt 0.5803276 0.9073016
vt 0.5886153 0.9038649
vt 0.5920675 0.9073173
vt 0.5886347 0.9156087
vt 0.5969498 0.9073156
vt 0.6003826 0.9156049
vt 0.6004020 0.9038611
vt 0.6086896 0.9072925
vt 0.6004020 0.8989774
vt 0.6086898 0.8955408
vt 0.3156808 0.9386702
vt 0.3083137 0.9386702
vt 0.3083137 0.9154261
vt 0.3156808 0.9154261
vt 0.7415940 0.9361028
vt 0.7415940 0.9476815
vt 0.7371873 0.9475465
vt 0.7371873 0.9359677
vt 0.3394497 0.9471368
vt 0.3394497 0.9587295
vt 0.3349374 0.9586528
vt 0.3349374 0.9470600
vt 0.9317657 0.9473515
vt 0.9317657 0.9357726
vt 0.9363711 0.9358767
vt 0.9363711 0.9474556
vt 0.9407777 0.9357420
vt 0.9407777 0.9473206
vt 0.8535070 0.9357452
vt 0.8535070 0.9473205
vt 0.7461991 0.9359985
vt 0.7461991 0.9475773
vt 0.3439621 0.9470600
vt 0.3439621 0.9586528
vt 0.2108696 0.9264299
vt 0.3705448 0.9228545
vt 0.3681055 0.9169592
vt 0.3729878 0.9169592
vt 0.3646522 0.9204125
vt 0.3646506 0.9252963
vt 0.3681017 0.9287497
vt 0.3729840 0.9287497
vt 0.3764374 0.9252963
vt 0.3764389 0.9204125
vt 0.2162440 0.9622592
vt 0.2203840 0.9622592
vt 0.2203840 0.9748251
vt 0.2162440 0.9748251
vt 0.9530665 0.8861617
vt 0.9479384 0.9204509
vt 0.9353843 0.9204509
vt 0.9298507 0.8861617
vt 0.6627108 0.9289008
vt 0.6700779 0.9289008
vt 0.6684644 0.9631159
vt 0.6643243 0.9631159
vt 0.8581303 0.9204509
vt 0.8530021 0.8861618
vt 0.8762179 0.8861618
vt 0.8706841 0.9204509
vt 0.4015416 0.9477738
vt 0.3974016 0.9477738
vt 0.3957879 0.9137584
vt 0.4031550 0.9137584
vt 0.0095862 0.5670281
vt 0.0268397 0.5682135
vt 0.6785397 0.5682212
vt 0.2500447 0.5682212
vt 0.6977120 0.3309358
vt 0.8844912 0.3309358
vt 0.8844912 0.5685855
vt 0.6977120 0.5685855
vt 0.7423841 0.3309359
vt 0.7423841 0.3099070
vt 0.7911015 0.3099070
vt 0.7911015 0.3309358
vt 0.8398191 0.3099070
vt 0.8398191 0.3309359
vt 0.9904139 0.1439979
vt 0.9036635 0.1439979
vt 0.9036636 0.0940490
vt 0.9845288 0.0940490
vt 0.9036636 0.0441001
vt 0.9904139 0.0441001
vt 0.7426459 0.3026987
vt 0.7911018 0.3026987
vt 0.8395573 0.3026987
vt 0.8844912 0.3099070
vt 0.8844912 0.3309358
vt 0.6977120 0.3099070
vt 0.6977120 0.3309358
vt 0.7066388 0.3026987
vt 0.8755645 0.3026987
vt 0.9904138 0.0095862
vt 0.9036636 0.0095862
vt 0.9904138 0.1785119
vt 0.9036636 0.1785119
vt 0.6977120 0.3309358
vt 0.7423841 0.3309359
vt 0.7911015 0.3309358
vt 0.8398191 0.3309359
vt 0.8844912 0.3309358
vt 0.4539851 0.5880297
vt 0.4712308 0.6052832
vt 0.2672904 0.8093159
vt 0.4539851 0.8093159
vt 0.4712308 0.7920623
vt 0.0508942 0.6046394
vt 0.0264987 0.6290395
vt 0.0095862 0.6046394
vt 0.0268364 0.5873858
vt 0.0264987 0.7670184
vt 0.0508942 0.7914185
vt 0.0268364 0.8086720
vt 0.0095862 0.7914185
vt 0.2132421 0.7670184
vt 0.2308300 0.7914186
vt 0.2135798 0.8086720
vt 0.1888466 0.7914185
vt 0.2308300 0.6046394
vt 0.2132421 0.6290395
vt 0.1888466 0.6046394
vt 0.2135798 0.5873858
vt 0.0095862 0.0684506
vt 0.0095862 0.0267989
vt 0.0268397 0.0279843
vt 0.0268397 0.0696359
vt 0.0512398 0.0095862
vt 0.1892187 0.0095862
vt 0.2136188 0.0279843
vt 0.2308723 0.3297396
vt 0.2308723 0.5670281
vt 0.2136188 0.5682135
vt 0.2136188 0.3309250
vt 0.4131112 0.0100561
vt 0.4365598 0.0284610
vt 0.2500447 0.0278249
vt 0.2753274 0.0095862
vt 0.4547060 0.3304504
vt 0.4547060 0.5678122
vt 0.4365598 0.5688573
vt 0.4365598 0.3314955
vt 0.8844912 0.0275339
vt 0.6977120 0.0275339
vt 0.7221122 0.0095862
vt 0.8600910 0.0095862
vt 0.4738784 0.5678122
vt 0.4738784 0.3304504
vt 0.4920246 0.3314955
vt 0.4920246 0.5688573
vt 0.4920246 0.0284610
vt 0.5154731 0.0100561
vt 0.6532569 0.0095862
vt 0.6785397 0.0278249
vt 0.9103323 0.7184702
vt 0.9267419 0.7183493
vt 0.9257547 0.7380112
vt 0.9093451 0.7381321
vt 0.9103324 0.6074196
vt 0.9267420 0.6075404
vt 0.9257547 0.6991770
vt 0.9093452 0.6990562
vt 0.9267419 0.8296478
vt 0.9103323 0.8297687
vt 0.9200684 0.5149278
vt 0.9036635 0.5149278
vt 0.9049473 0.4962406
vt 0.9213523 0.4962406
vt 0.2672904 0.8093159
vt 0.2500447 0.7920623
vt 0.2500447 0.6052832
vt 0.2672904 0.5880297
vt 0.4539851 0.5880297
vt 0.4712308 0.6052832
vt 0.4712308 0.7920623
vt 0.4539851 0.8093159
vt 0.2136188 0.0696359
vt 0.4920246 0.0701256
vt 0.6785397 0.0694895
vt 0.9093452 0.5877577
vt 0.9257548 0.5878785
vt 0.9049473 0.4044695
vt 0.9213523 0.4044695
vt 0.1578793 0.9196154
vt 0.1578793 0.8278443
vt 0.1743092 0.8278443
vt 0.1743092 0.9196154
vt 0.9036635 0.3857822
vt 0.9200684 0.3857822
vt 0.4365598 0.0701256
vt 0.2500447 0.0694895
vt 0.8844912 0.0692490
vt 0.6977120 0.0692490
vt 0.0739936 0.6334562
vt 0.0553100 0.6521434
vt 0.0553100 0.7439145
vt 0.0739936 0.7626017
vt 0.1657471 0.7626017
vt 0.1844307 0.7439145
vt 0.1844307 0.6521434
vt 0.1657471 0.6334562
vt 0.1328183 0.8489712
vt 0.1328183 0.9358631
vt 0.0741466 0.8924171
vt 0.1175842 0.8337342
vt 0.0154749 0.8489712
vt 0.0307090 0.8337342
vt 0.1175842 0.9511001
vt 0.0307090 0.9511001
vt 0.0154749 0.9358631
vt 0.0282698 0.8278444
vt 0.0095862 0.8465316
vt 0.0282698 0.9569899
vt 0.0095862 0.9383027
vt 0.1387069 0.9383028
vt 0.1200233 0.9569899
vt 0.1387070 0.8465316
vt 0.1200233 0.8278444
vt 0.4365598 0.3104920
vt 0.2500447 0.3308594
vt 0.2500447 0.3098559
vt 0.4920246 0.3104920
vt 0.6785397 0.3098559
vt 0.6785397 0.3308594
vt 0.0268397 0.3099281
vt 0.2136188 0.3099281
vt 0.0268397 0.3309250
vt 0.4738784 0.3094469
vt 0.4738784 0.0690805
vt 0.4547060 0.0690805
vt 0.4547060 0.3094469
vt 0.2308723 0.0684506
vt 0.2308723 0.3087426
vt 0.0095862 0.3297397
vt 0.0095862 0.3087426
vt 0.2308723 0.0267989
vt 0.4547060 0.0274160
vt 0.4738784 0.0274160
vt 0.9036635 0.3666099
vt 0.9036635 0.1976842
vt 0.9903912 0.1976842
vt 0.9903912 0.3666099
vt 0.7066388 0.0764573
vt 0.7066388 0.3026987
vt 0.6977120 0.3099070
vt 0.8755645 0.0764573
vt 0.8844912 0.3099070
vt 0.8755645 0.3026987
vt 0.4904031 0.5880296
vt 0.6593288 0.5880296
vt 0.6593288 0.8142711
vt 0.4904031 0.8142711
vt 0.7843564 0.5880533
vt 0.7843564 0.8140208
vt 0.6977121 0.8137253
vt 0.6977121 0.5877578
vt 0.8035287 0.8140208
vt 0.8035287 0.5880533
vt 0.8901729 0.5877578
vt 0.8901729 0.8137253
vt 0.2201985 0.9014008
vt 0.2136796 0.9012671
vt 0.2130131 0.8636966
vt 0.2286154 0.8640168
vt 0.4379286 0.9211048
vt 0.4379286 0.9279542
vt 0.4329317 0.9326325
vt 0.4296684 0.9243653
vt 0.3207015 0.8645755
vt 0.3272204 0.8644417
vt 0.3356373 0.9018258
vt 0.3200351 0.9021460
vt 0.4079403 0.8645533
vt 0.4143113 0.8644776
vt 0.4231884 0.9016923
vt 0.4079402 0.9018734
vt 0.5018774 0.9017346
vt 0.4955064 0.9016854
vt 0.4955063 0.8644856
vt 0.5107545 0.8646035
vt 0.4891354 0.9017347
vt 0.4802580 0.8646035
vt 0.4015693 0.8644776
vt 0.3926920 0.9016923
vt 0.4332502 0.9161022
vt 0.4264051 0.9160982
vt 0.4214084 0.9276259
vt 0.4214083 0.9207766
vt 0.3145046 0.8644417
vt 0.3052035 0.9018258
vt 0.4260865 0.9326286
vt 0.2074827 0.9014008
vt 0.1981815 0.8640168
vt 0.8254477 0.9357452
vt 0.8254477 0.9473205
vt 0.8209354 0.9474488
vt 0.8209354 0.9358737
vt 0.9885035 0.9305339
vt 0.9902433 0.9364514
vt 0.9791617 0.9367021
vt 0.9793001 0.9307423
vt 0.7023627 0.9396247
vt 0.6965150 0.9372373
vt 0.7034154 0.9303368
vt 0.7058631 0.9361242
vt 0.5871856 0.9307064
vt 0.5871856 0.9366139
vt 0.5763276 0.9364289
vt 0.5781680 0.9305529
vt 0.6965150 0.9469974
vt 0.7023627 0.9445757
vt 0.5962030 0.9305529
vt 0.5980434 0.9364289
vt 0.7034154 0.9538999
vt 0.7058631 0.9480771
vt 0.6981230 0.8942756
vt 0.6998630 0.8883582
vt 0.7090664 0.8885667
vt 0.7092047 0.8945264
vt 0.7108136 0.9480779
vt 0.7131745 0.9539012
vt 0.7178726 0.8882970
vt 0.7198082 0.8942017
vt 0.7143142 0.9445773
vt 0.7200749 0.9470007
vt 0.6234372 0.8942195
vt 0.6252777 0.8883014
vt 0.6342951 0.8885580
vt 0.6342951 0.8945284
vt 0.7143142 0.9396263
vt 0.7200749 0.9372405
vt 0.6433126 0.8883014
vt 0.6451530 0.8942195
vt 0.7108136 0.9361247
vt 0.7131745 0.9303381
vt 0.9685583 0.9363775
vt 0.9704939 0.9304726
vt 0.9902433 0.9589061
vt 0.9791617 0.9591569
vt 0.9685583 0.9588321
vt 0.5871856 0.9590956
vt 0.5763276 0.9589108
vt 0.5980434 0.9589108
vt 0.6981230 0.9167304
vt 0.7092047 0.9169811
vt 0.7198082 0.9166564
vt 0.6234372 0.9166671
vt 0.6342951 0.9169762
vt 0.6451530 0.9166671
vt 0.5581625 0.8872373
vt 0.5547297 0.8955266
vt 0.5498475 0.8955250
vt 0.5464146 0.8872337
vt 0.5664696 0.8955498
vt 0.5581820 0.8989812
vt 0.5664696 0.9073016
vt 0.5581820 0.9038649
vt 0.5581625 0.9156085
vt 0.5547297 0.9073173
vt 0.5464146 0.9156049
vt 0.5498475 0.9073156
vt 0.5463952 0.9038611
vt 0.5381076 0.9072925
vt 0.5463952 0.8989774
vt 0.5381075 0.8955407
vt 0.4638756 0.9384441
vt 0.4565085 0.9384441
vt 0.4565085 0.9152002
vt 0.4638756 0.9152002
vt 0.9083211 0.9474556
vt 0.9083211 0.9358767
vt 0.9127276 0.9357420
vt 0.9127276 0.9473206
vt 0.7771524 0.9495869
vt 0.7771524 0.9379941
vt 0.7816647 0.9379175
vt 0.7816647 0.9495100
vt 0.8815686 0.9357726
vt 0.8815686 0.9473515
vt 0.8769633 0.9474556
vt 0.8769633 0.9358767
vt 0.8725567 0.9473206
vt 0.8725567 0.9357420
vt 0.8164231 0.9473205
vt 0.8164231 0.9357452
vt 0.9037157 0.9473515
vt 0.9037157 0.9357726
vt 0.7726400 0.9495100
vt 0.7726400 0.9379175
vt 0.7083383 0.9421010
vt 0.3404616 0.9228545
vt 0.3380185 0.9169592
vt 0.3429008 0.9169592
vt 0.3463541 0.9204125
vt 0.3463557 0.9252963
vt 0.3429046 0.9287497
vt 0.3380223 0.9287497
vt 0.3345690 0.9252963
vt 0.3345674 0.9204125
vt 0.2404282 0.9161351
vt 0.2445681 0.9161351
vt 0.2445681 0.9287012
vt 0.2404282 0.9287012
vt 0.8965815 0.9204509
vt 0.8914535 0.8861618
vt 0.9146693 0.8861618
vt 0.9091356 0.9204509
vt 0.7373941 0.8864518
vt 0.7447613 0.8864518
vt 0.7431479 0.9206670
vt 0.7390078 0.9206670
vt 0.8377122 0.8861618
vt 0.8325841 0.9204509
vt 0.8200301 0.9204509
vt 0.8144964 0.8861618
vt 0.4891075 0.9476663
vt 0.4849675 0.9476663
vt 0.4833541 0.9136509
vt 0.4907211 0.9136509
vt 0.2769644 0.8645756
vt 0.2834832 0.8644418
vt 0.2919002 0.9018258
vt 0.2762979 0.9021460
vt 0.2633514 0.9281801
vt 0.2633514 0.9213308
vt 0.2716115 0.9245914
vt 0.2683482 0.9328585
vt 0.3709576 0.9021210
vt 0.3644387 0.9019873
vt 0.3637722 0.8644168
vt 0.3793745 0.8647370
vt 0.4453522 0.8644776
vt 0.4517232 0.8645533
vt 0.4517233 0.9018734
vt 0.4364751 0.9016923
vt 0.7850141 0.9229609
vt 0.7786431 0.9230101
vt 0.7697659 0.8858790
vt 0.7850143 0.8857610
vt 0.7913851 0.9230101
vt 0.8002623 0.8858790
vt 0.4580942 0.8644776
vt 0.4669715 0.9016923
vt 0.2680297 0.9163281
vt 0.2748748 0.9163243
vt 0.2798717 0.9210025
vt 0.2798716 0.9278518
vt 0.3582418 0.9021210
vt 0.3489407 0.8647370
vt 0.2751934 0.9328545
vt 0.2707675 0.8644418
vt 0.2614664 0.9018258
vt 0.8444823 0.9473205
vt 0.8444823 0.9357452
vt 0.8489947 0.9358737
vt 0.8489947 0.9474488
vt 0.5389771 0.9365052
vt 0.5407171 0.9305877
vt 0.5499204 0.9307960
vt 0.5500588 0.9367558
vt 0.2226938 0.9215679
vt 0.2168456 0.9239546
vt 0.2133456 0.9204535
vt 0.2157941 0.9146665
vt 0.6342951 0.9368331
vt 0.6342951 0.9309259
vt 0.6433125 0.9307725
vt 0.6451530 0.9366484
vt 0.2226924 0.9313282
vt 0.2168450 0.9289055
vt 0.6234372 0.9366484
vt 0.6252777 0.9307725
vt 0.2157910 0.9382296
vt 0.2133440 0.9324065
vt 0.9885035 0.8880781
vt 0.9902432 0.8939955
vt 0.9791617 0.8942463
vt 0.9793001 0.8882865
vt 0.2060321 0.9382296
vt 0.2083936 0.9324065
vt 0.9685583 0.8939216
vt 0.9704939 0.8880167
vt 0.1991325 0.9313282
vt 0.2048936 0.9289055
vt 0.6806655 0.8883014
vt 0.6825058 0.8942195
vt 0.6716480 0.8945284
vt 0.6716480 0.8885580
vt 0.2048943 0.9239546
vt 0.1991338 0.9215679
vt 0.6607901 0.8942195
vt 0.6626306 0.8883014
vt 0.2083952 0.9204535
vt 0.2060352 0.9146665
vt 0.5587266 0.9305263
vt 0.5606623 0.9364311
vt 0.5389771 0.9589598
vt 0.5500588 0.9592105
vt 0.5606623 0.9588858
vt 0.6342951 0.9593152
vt 0.6451530 0.9591303
vt 0.6234372 0.9591303
vt 0.9902432 0.9164503
vt 0.9791617 0.9167010
vt 0.9685583 0.9163763
vt 0.6825058 0.9166671
vt 0.6716480 0.9169762
vt 0.6607901 0.9166671
vt 0.5920676 0.8955266
vt 0.5886347 0.8872373
vt 0.6003826 0.8872337
vt 0.5969498 0.8955253
vt 0.5803276 0.8955498
vt 0.5886153 0.8989812
vt 0.5803276 0.9073016
vt 0.5886153 0.9038649
vt 0.5920675 0.9073173
vt 0.5886347 0.9156087
vt 0.5969498 0.9073156
vt 0.6003826 0.9156049
vt 0.6004020 0.9038611
vt 0.6086896 0.9072925
vt 0.6004020 0.8989774
vt 0.6086898 0.8955408
vt 0.3156808 0.9386702
vt 0.3083137 0.9386702
vt 0.3083137 0.9154261
vt 0.3156808 0.9154261
vt 0.7415940 0.9361028
vt 0.7415940 0.9476815
vt 0.7371873 0.9475465
vt 0.7371873 0.9359677
vt 0.3394497 0.9471368
vt 0.3394497 0.9587295
vt 0.3349374 0.9586528
vt 0.3349374 0.9470600
vt 0.9317657 0.9473515
vt 0.9317657 0.9357726
vt 0.9363711 0.9358767
vt 0.9363711 0.9474556
vt 0.9407777 0.9357420
vt 0.9407777 0.9473206
vt 0.8535070 0.9357452
vt 0.8535070 0.9473205
vt 0.7461991 0.9359985
vt 0.7461991 0.9475773
vt 0.3439621 0.9470600
vt 0.3439621 0.9586528
vt 0.2108696 0.9264299
vt 0.3705448 0.9228545
vt 0.3681055 0.9169592
vt 0.3729878 0.9169592
vt 0.3646522 0.9204125
vt 0.3646506 0.9252963
vt 0.3681017 0.9287497
vt 0.3729840 0.9287497
vt 0.3764374 0.9252963
vt 0.3764389 0.9204125
vt 0.2162440 0.9622592
vt 0.2203840 0.9622592
vt 0.2203840 0.9748251
vt 0.2162440 0.9748251
vt 0.9530665 0.8861617
vt 0.9479384 0.9204509
vt 0.9353843 0.9204509
vt 0.9298507 0.8861617
vt 0.6627108 0.9289008
vt 0.6700779 0.9289008
vt 0.6684644 0.9631159
vt 0.6643243 0.9631159
vt 0.8581303 0.9204509
vt 0.8530021 0.8861618
vt 0.8762179 0.8861618
vt 0.8706841 0.9204509
vt 0.4015416 0.9477738
vt 0.3974016 0.9477738
vt 0.3957879 0.9137584
vt 0.4031550 0.9137584
vt 0.0095862 0.5670281
vt 0.0268397 0.5682135
vt 0.6785397 0.5682212
vt 0.2500447 0.5682212
vt 0.6977120 0.3309358
vt 0.8844912 0.3309358
vt 0.8844912 0.5685855
vt 0.6977120 0.5685855
vt 0.7423841 0.3309359
vt 0.7423841 0.3099070
vt 0.7911015 0.3099070
vt 0.7911015 0.3309358
vt 0.8398191 0.3099070
vt 0.8398191 0.3309359
vt 0.9904139 0.1439979
vt 0.9036635 0.1439979
vt 0.9036636 0.0940490
vt 0.9845288 0.0940490
vt 0.9036636 0.0441001
vt 0.9904139 0.0441001
vt 0.7426459 0.3026987
vt 0.7911018 0.3026987
vt 0.8395573 0.3026987
vt 0.9904138 0.0095862
vt 0.9036636 0.0095862
vt 0.9904138 0.1785119
vt 0.9036636 0.1785119
vt 0.6977120 0.3309358
vt 0.7423841 0.3309359
vt 0.7911015 0.3309358
vt 0.8398191 0.3309359
vt 0.8844912 0.3309358
f 1/1 2/2 3/3
f 1/1 3/3 4/4
f 83/83 2/2 1/1
f 15/15 83/83 1/1
f 83/83 84/84 2/2
f 84/84 5/5 2/2
f 15/15 90/90 83/83
f 13/13 14/14 15/15
f 13/13 15/15 16/16
f 15/15 14/14 89/89
f 15/15 89/89 90/90
f 14/14 9/9 88/88
f 14/14 88/88 89/89
f 9/9 10/10 11/11
f 9/9 11/11 12/12
f 9/9 12/12 87/87
f 9/9 87/87 88/88
f 87/87 12/12 6/6
f 87/87 6/6 86/86
f 5/5 6/6 7/7
f 85/85 86/86 6/6
f 85/85 6/6 5/5
f 5/5 7/7 8/8
f 84/84 85/85 5/5
f 17/17 18/18 19/19
f 17/17 19/19 20/20
f 124/124 17/17 20/20
f 21/21 23/23 19/19
f 19/19 23/23 66/66
f 19/19 66/66 20/20
f 20/20 66/66 115/115
f 20/20 115/115 114/114
f 124/124 20/20 114/114
f 123/123 124/124 114/114
f 114/114 115/115 27/27
f 114/114 27/27 116/116
f 123/123 114/114 116/116
f 121/121 122/122 115/115
f 121/121 115/115 66/66
f 122/122 27/27 115/115
f 125/125 121/121 66/66
f 125/125 66/66 23/23
f 21/21 22/22 23/23
f 24/24 26/26 27/27
f 116/116 27/27 26/26
f 122/122 24/24 27/27
f 24/24 25/25 26/26
f 116/116 26/26 469/469
f 468/468 116/116 469/469
f 468/468 123/123 116/116
f 28/28 29/29 30/30
f 28/28 30/30 31/31
f 29/29 79/79 80/80
f 29/29 80/80 30/30
f 126/126 79/79 29/29
f 119/119 108/108 79/79
f 126/126 119/119 79/79
f 79/79 108/108 110/110
f 79/79 110/110 80/80
f 119/119 120/120 108/108
f 108/108 35/35 109/109
f 108/108 109/109 110/110
f 120/120 35/35 108/108
f 120/120 32/32 35/35
f 32/32 34/34 35/35
f 35/35 34/34 471/471
f 35/35 471/471 109/109
f 32/32 33/33 34/34
f 36/36 37/37 38/38
f 36/36 38/38 39/39
f 37/37 36/36 81/81
f 37/37 81/81 82/82
f 135/135 81/81 136/136
f 82/82 81/81 135/135
f 82/82 132/132 133/133
f 82/82 133/133 134/134
f 82/82 135/135 132/132
f 135/135 136/136 137/137
f 40/40 41/41 42/42
f 40/40 42/42 43/43
f 41/41 117/117 111/111
f 41/41 111/111 42/42
f 42/42 111/111 112/112
f 42/42 112/112 113/113
f 43/43 42/42 113/113
f 43/43 113/113 470/470
f 111/111 68/68 112/112
f 117/117 67/67 111/111
f 111/111 67/67 68/68
f 117/117 118/118 67/67
f 67/67 44/44 47/47
f 67/67 47/47 68/68
f 118/118 44/44 67/67
f 118/118 127/127 44/44
f 44/44 45/45 46/46
f 44/44 46/46 47/47
f 48/48 49/49 50/50
f 48/48 50/50 51/51
f 51/51 50/50 56/56
f 51/51 56/56 57/57
f 52/52 53/53 54/54
f 52/52 54/54 55/55
f 69/69 53/53 52/52
f 69/69 70/70 53/53
f 58/58 59/59 60/60
f 58/58 60/60 61/61
f 60/60 71/71 72/72
f 60/60 72/72 61/61
f 77/77 72/72 71/71
f 77/77 78/78 72/72
f 62/62 63/63 64/64
f 62/62 64/64 65/65
f 508/508 62/62 65/65
f 65/65 64/64 506/506
f 65/65 506/506 507/507
f 508/508 65/65 509/509
f 509/509 65/65 507/507
f 509/509 507/507 510/510
f 73/73 74/74 75/75
f 73/73 75/75 76/76
f 91/91 92/92 93/93
f 91/91 93/93 94/94
f 106/106 91/91 94/94
f 106/106 92/92 91/91
f 94/94 93/93 95/95
f 92/92 98/98 93/93
f 93/93 98/98 99/99
f 93/93 99/99 95/95
f 94/94 95/95 96/96
f 106/106 94/94 107/107
f 107/107 94/94 96/96
f 106/106 104/104 92/92
f 92/92 104/104 105/105
f 92/92 105/105 97/97
f 97/97 105/105 102/102
f 92/92 97/97 98/98
f 97/97 102/102 98/98
f 98/98 102/102 103/103
f 98/98 103/103 99/99
f 95/95 99/99 103/103
f 95/95 103/103 101/101
f 100/100 95/95 101/101
f 100/100 96/96 95/95
f 107/107 96/96 100/100
f 128/128 129/129 130/130
f 128/128 130/130 131/131
f 138/138 139/139 140/140
f 138/138 140/140 141/141
f 142/142 143/143 144/144
f 142/142 144/144 145/145
f 146/146 147/147 148/148
f 146/146 148/148 149/149
f 150/150 151/151 152/152
f 150/150 152/152 153/153
f 151/151 181/181 182/182
f 151/151 182/182 152/152
f 154/154 155/155 156/156
f 154/154 156/156 157/157
f 174/174 154/154 157/157
f 157/157 156/156 180/180
f 174/174 157/157 175/175
f 175/175 157/157 176/176
f 157/157 180/180 176/176
f 175/175 176/176 177/177
f 158/158 159/159 160/160
f 158/158 160/160 161/161
f 178/178 158/158 161/161
f 178/178 161/161 179/179
f 162/162 163/163 164/164
f 162/162 164/164 165/165
f 172/172 162/162 165/165
f 172/172 165/165 173/173
f 166/166 167/167 168/168
f 166/166 168/168 169/169
f 167/167 170/170 171/171
f 167/167 171/171 168/168
f 183/183 184/184 185/185
f 183/183 185/185 186/186
f 273/273 186/186 185/185
f 273/273 274/274 186/186
f 187/187 188/188 189/189
f 187/187 189/189 190/190
f 188/188 227/227 228/228
f 188/188 228/228 189/189
f 190/190 189/189 225/225
f 189/189 228/228 229/229
f 189/189 229/229 225/225
f 190/190 225/225 226/226
f 191/191 192/192 193/193
f 191/191 193/193 194/194
f 199/199 192/192 191/191
f 199/199 191/191 200/200
f 279/279 191/191 194/194
f 279/279 200/200 191/191
f 194/194 193/193 224/224
f 194/194 224/224 223/223
f 279/279 194/194 223/223
f 219/219 223/223 224/224
f 219/219 224/224 220/220
f 279/279 223/223 219/219
f 213/213 219/219 220/220
f 279/279 219/219 213/213
f 279/279 204/204 200/200
f 279/279 209/209 204/204
f 279/279 213/213 209/209
f 210/210 209/209 213/213
f 210/210 213/213 214/214
f 213/213 220/220 214/214
f 203/203 204/204 209/209
f 203/203 209/209 210/210
f 203/203 200/200 204/204
f 203/203 199/199 200/200
f 195/195 196/196 197/197
f 195/195 197/197 198/198
f 196/196 195/195 201/201
f 196/196 201/201 202/202
f 196/196 230/230 231/231
f 196/196 231/231 197/197
f 230/230 196/196 202/202
f 230/230 202/202 232/232
f 205/205 206/206 207/207
f 205/205 207/207 208/208
f 233/233 205/205 208/208
f 208/208 207/207 211/211
f 208/208 211/211 212/212
f 233/233 208/208 234/234
f 234/234 208/208 212/212
f 234/234 212/212 235/235
f 215/215 216/216 217/217
f 215/215 217/217 218/218
f 236/236 215/215 218/218
f 221/221 218/218 217/217
f 221/221 222/222 218/218
f 236/236 218/218 237/237
f 222/222 237/237 218/218
f 222/222 238/238 237/237
f 239/239 240/240 241/241
f 239/239 241/241 242/242
f 239/239 243/243 244/244
f 239/239 244/244 240/240
f 242/242 241/241 253/253
f 242/242 253/253 254/254
f 253/253 251/251 252/252
f 253/253 252/252 254/254
f 251/251 250/250 249/249
f 251/251 249/249 252/252
f 248/248 249/249 250/250
f 248/248 247/247 249/249
f 246/246 247/247 248/248
f 246/246 245/245 247/247
f 243/243 245/245 246/246
f 243/243 246/246 244/244
f 255/255 256/256 257/257
f 255/255 257/257 258/258
f 259/259 260/260 261/261
f 259/259 261/261 262/262
f 275/275 260/260 259/259
f 275/275 276/276 260/260
f 263/263 264/264 265/265
f 263/263 265/265 266/266
f 264/264 263/263 277/277
f 264/264 277/277 278/278
f 267/267 268/268 269/269
f 267/267 269/269 270/270
f 270/270 269/269 271/271
f 270/270 271/271 272/272
f 280/280 281/281 282/282
f 280/280 282/282 283/283
f 280/280 283/283 284/284
f 280/280 284/284 285/285
f 280/280 285/285 286/286
f 280/280 286/286 287/287
f 280/280 287/287 288/288
f 280/280 288/288 281/281
f 289/289 290/290 291/291
f 289/289 291/291 292/292
f 293/293 294/294 295/295
f 293/293 295/295 296/296
f 297/297 298/298 299/299
f 297/297 299/299 300/300
f 301/301 302/302 303/303
f 301/301 303/303 304/304
f 305/305 306/306 307/307
f 305/305 307/307 308/308
f 309/309 310/310 311/311
f 309/309 311/311 312/312
f 340/340 309/309 312/312
f 340/340 312/312 341/341
f 313/313 314/314 315/315
f 313/313 315/315 316/316
f 314/314 333/333 334/334
f 314/314 334/334 315/315
f 315/315 334/334 335/335
f 315/315 335/335 336/336
f 316/316 315/315 336/336
f 316/316 336/336 339/339
f 317/317 318/318 319/319
f 317/317 319/319 320/320
f 318/318 337/337 338/338
f 318/318 338/338 319/319
f 321/321 322/322 323/323
f 321/321 323/323 324/324
f 322/322 331/331 332/332
f 322/322 332/332 323/323
f 325/325 326/326 327/327
f 325/325 327/327 328/328
f 329/329 325/325 328/328
f 329/329 328/328 330/330
f 342/342 343/343 344/344
f 342/342 344/344 345/345
f 432/432 345/345 344/344
f 432/432 433/433 345/345
f 346/346 347/347 348/348
f 346/346 348/348 349/349
f 386/386 346/346 349/349
f 349/349 348/348 384/384
f 349/349 384/384 385/385
f 386/386 349/349 387/387
f 387/387 349/349 385/385
f 387/387 385/385 388/388
f 350/350 351/351 352/352
f 350/350 352/352 353/353
f 350/350 358/358 359/359
f 350/350 359/359 351/351
f 438/438 352/352 351/351
f 438/438 351/351 359/359
f 353/353 352/352 382/382
f 438/438 382/382 352/352
f 353/353 382/382 383/383
f 382/382 378/378 379/379
f 382/382 379/379 383/383
f 438/438 378/378 382/382
f 378/378 373/373 372/372
f 378/378 372/372 379/379
f 438/438 373/373 378/378
f 369/369 372/372 373/373
f 438/438 369/369 373/373
f 438/438 359/359 363/363
f 438/438 363/363 369/369
f 358/358 363/363 359/359
f 358/358 362/362 363/363
f 363/363 362/362 368/368
f 363/363 368/368 369/369
f 369/369 368/368 372/372
f 354/354 355/355 356/356
f 354/354 356/356 357/357
f 355/355 354/354 360/360
f 389/389 354/354 357/357
f 354/354 389/389 391/391
f 354/354 391/391 360/360
f 355/355 360/360 361/361
f 389/389 357/357 390/390
f 364/364 365/365 366/366
f 364/364 366/366 367/367
f 365/365 392/392 393/393
f 365/365 393/393 366/366
f 367/367 366/366 370/370
f 366/366 393/393 394/394
f 366/366 394/394 370/370
f 367/367 370/370 371/371
f 374/374 375/375 376/376
f 374/374 376/376 377/377
f 375/375 395/395 396/396
f 375/375 396/396 376/376
f 380/380 377/377 376/376
f 397/397 380/380 376/376
f 397/397 376/376 396/396
f 380/380 381/381 377/377
f 398/398 399/399 400/400
f 398/398 400/400 401/401
f 402/402 399/399 398/398
f 402/402 398/398 403/403
f 401/401 400/400 413/413
f 401/401 413/413 412/412
f 410/410 412/412 413/413
f 410/410 413/413 411/411
f 408/408 410/410 411/411
f 408/408 411/411 409/409
f 407/407 406/406 408/408
f 407/407 408/408 409/409
f 404/404 406/406 407/407
f 404/404 405/405 406/406
f 404/404 402/402 403/403
f 404/404 403/403 405/405
f 414/414 415/415 416/416
f 414/414 416/416 417/417
f 418/418 419/419 420/420
f 418/418 420/420 421/421
f 434/434 419/419 418/418
f 434/434 435/435 419/419
f 422/422 423/423 424/424
f 422/422 424/424 425/425
f 423/423 422/422 436/436
f 423/423 436/436 437/437
f 426/426 427/427 428/428
f 426/426 428/428 429/429
f 429/429 428/428 430/430
f 429/429 430/430 431/431
f 439/439 440/440 441/441
f 439/439 442/442 440/440
f 439/439 443/443 442/442
f 439/439 444/444 443/443
f 439/439 445/445 444/444
f 439/439 446/446 445/445
f 439/439 447/447 446/446
f 439/439 441/441 447/447
f 448/448 449/449 450/450
f 448/448 450/450 451/451
f 452/452 453/453 454/454
f 452/452 454/454 455/455
f 456/456 457/457 458/458
f 456/456 458/458 459/459
f 460/460 461/461 462/462
f 460/460 462/462 463/463
f 464/464 465/465 466/466
f 464/464 466/466 467/467
f 472/472 473/473 474/474
f 472/472 474/474 475/475
f 476/476 477/477 478/478
f 476/476 478/478 479/479
f 493/493 477/477 476/476
f 493/493 476/476 494/494
f 479/479 478/478 480/480
f 477/477 489/489 478/478
f 478/478 489/489 490/490
f 478/478 490/490 480/480
f 479/479 480/480 481/481
f 481/481 480/480 491/491
f 480/480 490/490 496/496
f 480/480 496/496 491/491
f 481/481 491/491 492/492
f 477/477 488/488 489/489
f 495/495 488/488 477/477
f 495/495 477/477 493/493
f 482/482 483/483 484/484
f 482/482 484/484 485/485
f 483/483 482/482 499/499
f 483/483 499/499 500/500
f 485/485 484/484 486/486
f 485/485 486/486 487/487
f 497/497 487/487 486/486
f 497/497 486/486 498/498
f 501/501 502/502 503/503
f 503/503 505/505 501/501
f 503/503 504/504 505/505
f 511/511 512/512 513/513
f 511/511 513/513 514/514
f 597/597 512/512 511/511
f 525/525 597/597 511/511
f 597/597 598/598 512/512
f 598/598 515/515 512/512
f 525/525 604/604 597/597
f 523/523 524/524 525/525
f 523/523 525/525 526/526
f 525/525 524/524 603/603
f 525/525 603/603 604/604
f 524/524 519/519 602/602
f 524/524 602/602 603/603
f 519/519 520/520 521/521
f 519/519 521/521 522/522
f 519/519 522/522 601/601
f 519/519 601/601 602/602
f 601/601 522/522 516/516
f 601/601 516/516 600/600
f 515/515 516/516 517/517
f 599/599 600/600 516/516
f 599/599 516/516 515/515
f 515/515 517/517 518/518
f 598/598 599/599 515/515
f 527/527 528/528 529/529
f 527/527 529/529 530/530
f 638/638 527/527 530/530
f 531/531 533/533 529/529
f 529/529 533/533 580/580
f 529/529 580/580 530/530
f 530/530 580/580 629/629
f 530/530 629/629 628/628
f 638/638 530/530 628/628
f 637/637 638/638 628/628
f 628/628 629/629 537/537
f 628/628 537/537 630/630
f 637/637 628/628 630/630
f 635/635 636/636 629/629
f 635/635 629/629 580/580
f 636/636 537/537 629/629
f 639/639 635/635 580/580
f 639/639 580/580 533/533
f 531/531 532/532 533/533
f 534/534 536/536 537/537
f 630/630 537/537 536/536
f 636/636 534/534 537/537
f 534/534 535/535 536/536
f 630/630 536/536 983/983
f 982/982 630/630 983/983
f 982/982 637/637 630/630
f 538/538 539/539 540/540
f 538/538 540/540 541/541
f 539/539 593/593 594/594
f 539/539 594/594 540/540
f 640/640 593/593 539/539
f 633/633 622/622 593/593
f 640/640 633/633 593/593
f 593/593 622/622 624/624
f 593/593 624/624 594/594
f 633/633 634/634 622/622
f 622/622 545/545 623/623
f 622/622 623/623 624/624
f 634/634 545/545 622/622
f 634/634 542/542 545/545
f 542/542 544/544 545/545
f 545/545 544/544 985/985
f 545/545 985/985 623/623
f 542/542 543/543 544/544
f 546/546 547/547 548/548
f 546/546 548/548 549/549
f 547/547 546/546 595/595
f 547/547 595/595 596/596
f 649/649 595/595 650/650
f 596/596 595/595 649/649
f 596/596 646/646 647/647
f 596/596 647/647 648/648
f 596/596 649/649 646/646
f 649/649 650/650 651/651
f 995/995 994/994 650/650
f 995/995 650/650 987/987
f 994/994 651/651 650/650
f 994/994 1004/1004 651/651
f 993/993 992/992 994/994
f 993/993 994/994 995/995
f 992/992 1004/1004 994/994
f 992/992 1003/1003 1004/1004
f 990/990 991/991 992/992
f 990/990 992/992 993/993
f 991/991 1003/1003 992/992
f 991/991 1002/1002 1003/1003
f 648/648 991/991 990/990
f 647/647 1002/1002 991/991
f 647/647 991/991 648/648
f 648/648 990/990 986/986
f 986/986 987/987 988/988
f 986/986 988/988 989/989
f 550/550 551/551 552/552
f 550/550 552/552 553/553
f 551/551 631/631 625/625
f 551/551 625/625 552/552
f 552/552 625/625 626/626
f 552/552 626/626 627/627
f 553/553 552/552 627/627
f 553/553 627/627 984/984
f 625/625 582/582 626/626
f 631/631 581/581 625/625
f 625/625 581/581 582/582
f 631/631 632/632 581/581
f 581/581 554/554 557/557
f 581/581 557/557 582/582
f 632/632 554/554 581/581
f 632/632 641/641 554/554
f 554/554 555/555 556/556
f 554/554 556/556 557/557
f 558/558 559/559 560/560
f 558/558 560/560 561/561
f 561/561 560/560 566/566
f 561/561 566/566 567/567
f 562/562 563/563 564/564
f 562/562 564/564 565/565
f 583/583 563/563 562/562
f 583/583 584/584 563/563
f 568/568 569/569 570/570
f 568/568 570/570 571/571
f 570/570 585/585 586/586
f 570/570 586/586 571/571
f 591/591 586/586 585/585
f 591/591 592/592 586/586
f 572/572 573/573 574/574
f 578/578 579/579 572/572
f 572/572 574/574 576/576
f 576/576 578/578 572/572
f 574/574 575/575 576/576
f 576/576 577/577 578/578
f 587/587 588/588 589/589
f 587/587 589/589 590/590
f 605/605 606/606 607/607
f 605/605 607/607 608/608
f 620/620 605/605 608/608
f 620/620 606/606 605/605
f 608/608 607/607 609/609
f 606/606 612/612 607/607
f 607/607 612/612 613/613
f 607/607 613/613 609/609
f 608/608 609/609 610/610
f 620/620 608/608 621/621
f 621/621 608/608 610/610
f 620/620 618/618 606/606
f 606/606 618/618 619/619
f 606/606 619/619 611/611
f 611/611 619/619 616/616
f 606/606 611/611 612/612
f 611/611 616/616 612/612
f 612/612 616/616 617/617
f 612/612 617/617 613/613
f 609/609 613/613 617/617
f 609/609 617/617 615/615
f 614/614 609/609 615/615
f 614/614 610/610 609/609
f 621/621 610/610 614/614
f 642/642 643/643 644/644
f 642/642 644/644 645/645
f 652/652 653/653 654/654
f 652/652 654/654 655/655
f 656/656 657/657 658/658
f 656/656 658/658 659/659
f 660/660 661/661 662/662
f 660/660 662/662 663/663
f 664/664 665/665 666/666
f 664/664 666/666 667/667
f 665/665 695/695 696/696
f 665/665 696/696 666/666
f 668/668 669/669 670/670
f 668/668 670/670 671/671
f 688/688 668/668 671/671
f 671/671 670/670 694/694
f 688/688 671/671 689/689
f 689/689 671/671 690/690
f 671/671 694/694 690/690
f 689/689 690/690 691/691
f 672/672 673/673 674/674
f 672/672 674/674 675/675
f 692/692 672/672 675/675
f 692/692 675/675 693/693
f 676/676 677/677 678/678
f 676/676 678/678 679/679
f 686/686 676/676 679/679
f 686/686 679/679 687/687
f 680/680 681/681 682/682
f 680/680 682/682 683/683
f 681/681 684/684 685/685
f 681/681 685/685 682/682
f 697/697 698/698 699/699
f 697/697 699/699 700/700
f 787/787 700/700 699/699
f 787/787 788/788 700/700
f 701/701 702/702 703/703
f 701/701 703/703 704/704
f 702/702 741/741 742/742
f 702/702 742/742 703/703
f 704/704 703/703 739/739
f 703/703 742/742 743/743
f 703/703 743/743 739/739
f 704/704 739/739 740/740
f 705/705 706/706 707/707
f 705/705 707/707 708/708
f 713/713 706/706 705/705
f 713/713 705/705 714/714
f 793/793 705/705 708/708
f 793/793 714/714 705/705
f 708/708 707/707 738/738
f 708/708 738/738 737/737
f 793/793 708/708 737/737
f 733/733 737/737 738/738
f 733/733 738/738 734/734
f 793/793 737/737 733/733
f 727/727 733/733 734/734
f 793/793 733/733 727/727
f 793/793 718/718 714/714
f 793/793 723/723 718/718
f 793/793 727/727 723/723
f 724/724 723/723 727/727
f 724/724 727/727 728/728
f 727/727 734/734 728/728
f 717/717 718/718 723/723
f 717/717 723/723 724/724
f 717/717 714/714 718/718
f 717/717 713/713 714/714
f 709/709 710/710 711/711
f 709/709 711/711 712/712
f 710/710 709/709 715/715
f 710/710 715/715 716/716
f 710/710 744/744 745/745
f 710/710 745/745 711/711
f 744/744 710/710 716/716
f 744/744 716/716 746/746
f 719/719 720/720 721/721
f 719/719 721/721 722/722
f 747/747 719/719 722/722
f 722/722 721/721 725/725
f 722/722 725/725 726/726
f 747/747 722/722 748/748
f 748/748 722/722 726/726
f 748/748 726/726 749/749
f 729/729 730/730 731/731
f 729/729 731/731 732/732
f 750/750 729/729 732/732
f 735/735 732/732 731/731
f 735/735 736/736 732/732
f 750/750 732/732 751/751
f 736/736 751/751 732/732
f 736/736 752/752 751/751
f 753/753 754/754 755/755
f 753/753 755/755 756/756
f 753/753 757/757 758/758
f 753/753 758/758 754/754
f 756/756 755/755 767/767
f 756/756 767/767 768/768
f 767/767 765/765 766/766
f 767/767 766/766 768/768
f 765/765 764/764 763/763
f 765/765 763/763 766/766
f 762/762 763/763 764/764
f 762/762 761/761 763/763
f 760/760 761/761 762/762
f 760/760 759/759 761/761
f 757/757 759/759 760/760
f 757/757 760/760 758/758
f 769/769 770/770 771/771
f 769/769 771/771 772/772
f 773/773 774/774 775/775
f 773/773 775/775 776/776
f 789/789 774/774 773/773
f 789/789 790/790 774/774
f 777/777 778/778 779/779
f 777/777 779/779 780/780
f 778/778 777/777 791/791
f 778/778 791/791 792/792
f 781/781 782/782 783/783
f 781/781 783/783 784/784
f 784/784 783/783 785/785
f 784/784 785/785 786/786
f 794/794 795/795 796/796
f 794/794 796/796 797/797
f 794/794 797/797 798/798
f 794/794 798/798 799/799
f 794/794 799/799 800/800
f 794/794 800/800 801/801
f 794/794 801/801 802/802
f 794/794 802/802 795/795
f 803/803 804/804 805/805
f 803/803 805/805 806/806
f 807/807 808/808 809/809
f 807/807 809/809 810/810
f 811/811 812/812 813/813
f 811/811 813/813 814/814
f 815/815 816/816 817/817
f 815/815 817/817 818/818
f 819/819 820/820 821/821
f 819/819 821/821 822/822
f 823/823 824/824 825/825
f 823/823 825/825 826/826
f 854/854 823/823 826/826
f 854/854 826/826 855/855
f 827/827 828/828 829/829
f 827/827 829/829 830/830
f 828/828 847/847 848/848
f 828/828 848/848 829/829
f 829/829 848/848 849/849
f 829/829 849/849 850/850
f 830/830 829/829 850/850
f 830/830 850/850 853/853
f 831/831 832/832 833/833
f 831/831 833/833 834/834
f 832/832 851/851 852/852
f 832/832 852/852 833/833
f 835/835 836/836 837/837
f 835/835 837/837 838/838
f 836/836 845/845 846/846
f 836/836 846/846 837/837
f 839/839 840/840 841/841
f 839/839 841/841 842/842
f 843/843 839/839 842/842
f 843/843 842/842 844/844
f 856/856 857/857 858/858
f 856/856 858/858 859/859
f 946/946 859/859 858/858
f 946/946 947/947 859/859
f 860/860 861/861 862/862
f 860/860 862/862 863/863
f 900/900 860/860 863/863
f 863/863 862/862 898/898
f 863/863 898/898 899/899
f 900/900 863/863 901/901
f 901/901 863/863 899/899
f 901/901 899/899 902/902
f 864/864 865/865 866/866
f 864/864 866/866 867/867
f 864/864 872/872 873/873
f 864/864 873/873 865/865
f 952/952 866/866 865/865
f 952/952 865/865 873/873
f 867/867 866/866 896/896
f 952/952 896/896 866/866
f 867/867 896/896 897/897
f 896/896 892/892 893/893
f 896/896 893/893 897/897
f 952/952 892/892 896/896
f 892/892 887/887 886/886
f 892/892 886/886 893/893
f 952/952 887/887 892/892
f 883/883 886/886 887/887
f 952/952 883/883 887/887
f 952/952 873/873 877/877
f 952/952 877/877 883/883
f 872/872 877/877 873/873
f 872/872 876/876 877/877
f 877/877 876/876 882/882
f 877/877 882/882 883/883
f 883/883 882/882 886/886
f 868/868 869/869 870/870
f 868/868 870/870 871/871
f 869/869 868/868 874/874
f 903/903 868/868 871/871
f 868/868 903/903 905/905
f 868/868 905/905 874/874
f 869/869 874/874 875/875
f 903/903 871/871 904/904
f 878/878 879/879 880/880
f 878/878 880/880 881/881
f 879/879 906/906 907/907
f 879/879 907/907 880/880
f 881/881 880/880 884/884
f 880/880 907/907 908/908
f 880/880 908/908 884/884
f 881/881 884/884 885/885
f 888/888 889/889 890/890
f 888/888 890/890 891/891
f 889/889 909/909 910/910
f 889/889 910/910 890/890
f 894/894 891/891 890/890
f 911/911 894/894 890/890
f 911/911 890/890 910/910
f 894/894 895/895 891/891
f 912/912 913/913 914/914
f 912/912 914/914 915/915
f 916/916 913/913 912/912
f 916/916 912/912 917/917
f 915/915 914/914 927/927
f 915/915 927/927 926/926
f 924/924 926/926 927/927
f 924/924 927/927 925/925
f 922/922 924/924 925/925
f 922/922 925/925 923/923
f 921/921 920/920 922/922
f 921/921 922/922 923/923
f 918/918 920/920 921/921
f 918/918 919/919 920/920
f 918/918 916/916 917/917
f 918/918 917/917 919/919
f 928/928 929/929 930/930
f 928/928 930/930 931/931
f 932/932 933/933 934/934
f 932/932 934/934 935/935
f 948/948 933/933 932/932
f 948/948 949/949 933/933
f 936/936 937/937 938/938
f 936/936 938/938 939/939
f 937/937 936/936 950/950
f 937/937 950/950 951/951
f 940/940 941/941 942/942
f 940/940 942/942 943/943
f 943/943 942/942 944/944
f 943/943 944/944 945/945
f 953/953 954/954 955/955
f 953/953 956/956 954/954
f 953/953 957/957 956/956
f 953/953 958/958 957/957
f 953/953 959/959 958/958
f 953/953 960/960 959/959
f 953/953 961/961 960/960
f 953/953 955/955 961/961
f 962/962 963/963 964/964
f 962/962 964/964 965/965
f 966/966 967/967 968/968
f 966/966 968/968 969/969
f 970/970 971/971 972/972
f 970/970 972/972 973/973
f 974/974 975/975 976/976
f 974/974 976/976 977/977
f 978/978 979/979 980/980
f 978/978 980/980 981/981
f 996/996 997/997 998/998
f 996/996 998/998 999/999
f 997/997 996/996 1007/1007
f 997/997 1007/1007 1008/1008
f 999/999 998/998 1000/1000
f 999/999 1000/1000 1001/1001
f 1005/1005 1001/1001 1000/1000
f 1005/1005 1000/1000 1006/1006
f 1009/1009 1010/1010 1011/1011
f 1011/1011 1013/1013 1009/1009
f 1011/1011 1012/1012 1013/1013
